<?xml version="1.0" standalone="no"?>
<!DOCTYPE svg PUBLIC "-//W3C//DTD SVG 20010904//EN"
 "http://www.w3.org/TR/2001/REC-SVG-20010904/DTD/svg10.dtd">
<svg version="1.0" xmlns="http://www.w3.org/2000/svg"
 width="512.000000pt" height="512.000000pt" viewBox="0 0 512.000000 512.000000"
 preserveAspectRatio="xMidYMid meet">

<g transform="translate(0.000000,512.000000) scale(0.100000,-0.100000)"
fill="#000000" stroke="none">
<path d="M3780 3443 c-21 -11 -257 -260 -608 -643 -910 -991 -859 -934 -867
-978 -8 -50 13 -102 51 -129 66 -46 116 -36 182 38 26 29 352 386 725 792 504
551 680 749 688 776 30 103 -76 193 -171 144z"/>
<path d="M3182 3418 c-18 -13 -315 -341 -662 -730 -347 -390 -634 -708 -638
-708 -5 0 -122 129 -262 286 -288 325 -309 341 -391 299 -58 -30 -86 -114 -57
-168 6 -12 154 -180 329 -373 273 -302 323 -352 351 -357 78 -11 60 -29 801
793 384 426 705 787 713 802 28 53 10 129 -38 162 -34 24 -109 20 -146 -6z"/>
</g>
</svg>
