<svg width="67" height="70" viewBox="0 0 67 70" fill="none" xmlns="http://www.w3.org/2000/svg">
<path d="M37.3364 27.2602C37.6089 27.2602 37.8702 27.1519 38.0629 26.9593C38.2556 26.7666 38.3638 26.5053 38.3638 26.2328V25.1369C38.3638 24.8644 38.2556 24.6031 38.0629 24.4104C37.8702 24.2177 37.6089 24.1095 37.3364 24.1095C37.0639 24.1095 36.8026 24.2177 36.6099 24.4104C36.4173 24.6031 36.309 24.8644 36.309 25.1369V26.2328C36.309 26.5053 36.4173 26.7666 36.6099 26.9593C36.8026 27.1519 37.0639 27.2602 37.3364 27.2602ZM24.1858 24.1095C23.9133 24.1095 23.652 24.2177 23.4593 24.4104C23.2666 24.6031 23.1584 24.8644 23.1584 25.1369V26.2328C23.1584 26.5053 23.2666 26.7666 23.4593 26.9593C23.652 27.1519 23.9133 27.2602 24.1858 27.2602C24.4583 27.2602 24.7196 27.1519 24.9123 26.9593C25.1049 26.7666 25.2132 26.5053 25.2132 26.2328V25.1369C25.2132 24.8644 25.1049 24.6031 24.9123 24.4104C24.7196 24.2177 24.4583 24.1095 24.1858 24.1095ZM28.1099 30.4393L30.3016 31.5352C30.5444 31.6493 30.8221 31.6639 31.0755 31.576C31.3289 31.4881 31.5379 31.3046 31.6579 31.0647C31.7778 30.8248 31.7992 30.5475 31.7175 30.2921C31.6358 30.0366 31.4575 29.8232 31.2205 29.6974L29.9477 29.061L31.68 25.5963C31.7403 25.4757 31.7763 25.3443 31.7859 25.2097C31.7955 25.0751 31.7784 24.94 31.7358 24.812C31.6931 24.684 31.6257 24.5657 31.5372 24.4637C31.4488 24.3618 31.3412 24.2783 31.2205 24.218C31.0999 24.1576 30.9685 24.1217 30.8339 24.1121C30.6993 24.1025 30.5642 24.1195 30.4362 24.1622C30.3082 24.2049 30.1899 24.2723 30.0879 24.3607C29.986 24.4491 29.9025 24.5568 29.8422 24.6774L27.6504 29.061C27.5286 29.3047 27.5085 29.5868 27.5947 29.8453C27.6809 30.1038 27.8662 30.3175 28.1099 30.4393ZM36.172 33.904C36.172 33.6315 36.0638 33.3702 35.8711 33.1775C35.6784 32.9848 35.4171 32.8766 35.1446 32.8766H26.3776C26.1051 32.8766 25.8437 32.9848 25.6511 33.1775C25.4584 33.3702 25.3502 33.6315 25.3502 33.904C25.3502 36.8875 27.7775 39.3149 30.7611 39.3149C33.7446 39.3149 36.172 36.8875 36.172 33.904ZM27.5658 34.9314H33.9564C33.5215 36.2811 32.2534 37.2601 30.7611 37.2601C29.2688 37.2601 28.0007 36.2811 27.5658 34.9314Z" fill="#001645"/>
<path d="M61.2384 28.0967C57.2289 26.873 53.1147 28.6691 52.0672 32.1006L48.4836 43.8401C48.4207 43.8379 48.358 43.8353 48.2951 43.8353H38.4054C42.9632 41.1894 46.0349 36.2549 46.0349 30.6162V30.5448C46.0578 30.5452 46.0804 30.5477 46.1034 30.5477C48.4827 30.5477 50.4184 28.6119 50.4184 26.2326C50.4184 24.8291 49.7444 23.5802 48.7035 22.7917C48.8873 22.7121 49.0439 22.5804 49.1539 22.4129C49.2639 22.2454 49.3225 22.0495 49.3225 21.8491V18.5614C49.3225 18.2889 49.2143 18.0276 49.0216 17.835C48.8289 17.6423 48.5676 17.534 48.2951 17.534H47.1034C46.9138 13.5727 45.625 10.1109 43.3419 7.47518C41.0276 4.80368 37.7949 3.07273 33.9801 2.45026V1.02739C33.9801 0.754912 33.8719 0.49359 33.6792 0.300916C33.4865 0.108243 33.2252 0 32.9527 0L28.5692 0C28.2967 0 28.0354 0.108243 27.8427 0.300916C27.65 0.49359 27.5418 0.754912 27.5418 1.02739V2.45013C23.7541 3.0678 20.5406 4.77793 18.2279 7.42024C15.9147 10.0634 14.6094 13.5442 14.4186 17.5342H13.2269C13.092 17.5342 12.9584 17.5608 12.8337 17.6124C12.7091 17.664 12.5958 17.7397 12.5004 17.8351C12.405 17.9305 12.3294 18.0438 12.2777 18.1684C12.2261 18.2931 12.1995 18.4266 12.1995 18.5616V21.8492C12.1996 22.0496 12.2582 22.2456 12.3682 22.413C12.4781 22.5805 12.6347 22.7122 12.8186 22.7918C11.7776 23.5803 11.1036 24.8292 11.1036 26.2328C11.1036 28.6121 13.0394 30.5478 15.4187 30.5478C15.4417 30.5478 15.4643 30.5454 15.4872 30.5449V30.6163C15.4872 36.2551 18.5589 41.1896 23.1166 43.8354H13.2269C10.2434 43.8354 7.81598 46.2628 7.81598 49.2464V53.5709L2.76682 57.1774C2.63374 57.2725 2.52527 57.3979 2.45043 57.5433C2.3756 57.6888 2.33655 57.8499 2.33655 58.0135V67.9449H1.17217C0.899687 67.9449 0.638366 68.0532 0.445692 68.2458C0.253018 68.4385 0.144775 68.6998 0.144775 68.9723C0.144775 69.2448 0.253018 69.5061 0.445692 69.6988C0.638366 69.8915 0.899687 69.9997 1.17217 69.9997H20.8981C21.1706 69.9997 21.4319 69.8915 21.6246 69.6988C21.8173 69.5061 21.9255 69.2448 21.9255 68.9723C21.9255 68.6998 21.8173 68.4385 21.6246 68.2458C21.4319 68.0532 21.1706 67.9449 20.8981 67.9449H19.7337V58.0135C19.7337 57.8499 19.6947 57.6888 19.6199 57.5433C19.545 57.3979 19.4365 57.2725 19.3035 57.1774L11.6323 51.698C11.458 51.5736 11.2492 51.5067 11.0351 51.5067C10.8209 51.5067 10.6122 51.5736 10.4379 51.698L9.87063 52.1032V49.2464C9.87063 47.3958 11.3762 45.8902 13.2268 45.8902H23.6358L29.906 55.2957C29.9963 55.4311 30.1175 55.5431 30.2596 55.6226C30.4017 55.702 30.5606 55.7465 30.7233 55.7524C30.8859 55.7584 31.0477 55.7256 31.1952 55.6567C31.3427 55.5879 31.4717 55.485 31.5716 55.3565L38.9348 45.8902H47.858L40.9038 68.6725C40.8644 68.8015 40.8508 68.937 40.8638 69.0713C40.8768 69.2056 40.9161 69.3361 40.9795 69.4552C41.0429 69.5743 41.1292 69.6797 41.2333 69.7655C41.3375 69.8513 41.4575 69.9157 41.5865 69.9551C41.7156 69.9944 41.8511 70.008 41.9854 69.995C42.1197 69.982 42.2501 69.9427 42.3692 69.8793C42.4883 69.8159 42.5938 69.7297 42.6796 69.6255C42.7653 69.5214 42.8297 69.4014 42.8691 69.2723L52.7325 36.9596C52.7866 37.0508 52.8424 37.1415 52.9013 37.2315C53.9184 38.7845 55.5299 39.9608 57.4391 40.5437C58.288 40.8028 59.1533 40.9318 60.0034 40.9318C61.0651 40.9318 62.1029 40.7305 63.0532 40.3304C63.1514 40.2888 63.2487 40.245 63.3449 40.199L54.6533 68.6726C54.5738 68.9332 54.601 69.2148 54.7291 69.4553C54.8571 69.6958 55.0754 69.8756 55.3361 69.9552C55.5967 70.0347 55.8782 70.0075 56.1188 69.8795C56.3593 69.7514 56.5391 69.5331 56.6187 69.2725L66.6103 36.54C67.6577 33.1082 65.2479 29.3207 61.2384 28.0967ZM9.87076 67.9449V63.4244H12.1995V67.9449H9.87076ZM11.0351 53.7966L17.679 58.5422V67.9449H14.2543V62.397C14.2543 62.1245 14.1461 61.8632 13.9534 61.6705C13.7607 61.4779 13.4994 61.3696 13.2269 61.3696H8.84337C8.57089 61.3696 8.30957 61.4779 8.11689 61.6705C7.92422 61.8632 7.81598 62.1245 7.81598 62.397V67.9449H4.39133V58.5422L11.0351 53.7966ZM46.1035 28.493C46.0806 28.493 46.0579 28.4908 46.035 28.4902V23.9754C46.0579 23.9747 46.0805 23.9725 46.1035 23.9725C47.3498 23.9725 48.3638 24.9865 48.3638 26.2328C48.3638 27.4791 47.3498 28.493 46.1035 28.493ZM29.5967 2.05479H31.9255V17.5342H29.5967V2.05479ZM27.5419 4.53354V17.5342H16.4768C16.8495 10.6205 20.9963 5.73751 27.5419 4.53354ZM14.2543 19.589H36.9196C37.192 19.589 37.4534 19.4807 37.646 19.288C37.8387 19.0954 37.947 18.8341 37.947 18.5616C37.947 18.2891 37.8387 18.0278 37.646 17.8351C37.4534 17.6424 37.192 17.5342 36.9196 17.5342H33.9803V4.53313C40.5219 5.73751 44.6717 10.6305 45.0454 17.5342H41.8865C41.614 17.5342 41.3527 17.6424 41.1601 17.8351C40.9674 18.0278 40.8591 18.2891 40.8591 18.5616C40.8591 18.8341 40.9674 19.0954 41.1601 19.288C41.3527 19.4807 41.614 19.589 41.8865 19.589H47.268V20.8218H14.2544V19.589H14.2543ZM15.4187 28.493C14.1724 28.493 13.1584 27.4791 13.1584 26.2328C13.1584 24.9865 14.1724 23.9725 15.4187 23.9725C15.4417 23.9725 15.4643 23.9747 15.4872 23.9754V28.4902C15.4643 28.4908 15.4417 28.493 15.4187 28.493ZM17.542 30.6163V22.8766H43.9802V30.6163C43.9802 37.9053 38.0501 43.8354 30.7611 43.8354C23.4721 43.8354 17.542 37.9053 17.542 30.6163ZM30.8252 52.9699L26.1055 45.8902H36.3316L30.8252 52.9699ZM62.2559 38.4364C60.9871 38.9705 59.4895 39.0209 58.0391 38.5782C56.5887 38.1355 55.3746 37.2574 54.6202 36.1056C53.9046 35.0127 53.6958 33.8036 54.0325 32.7004C54.587 30.8837 56.4865 29.7641 58.673 29.7641C59.3124 29.7641 59.9765 29.8599 60.6385 30.0619C63.5644 30.9551 65.3616 33.5919 64.6451 35.9397C64.3084 37.043 63.4599 37.9296 62.2559 38.4364Z" fill="#001645"/>
<path d="M60.2786 31.2412C59.2469 30.9263 58.1792 30.9029 57.2724 31.1752C56.2333 31.4872 55.4822 32.1744 55.2118 33.0602C54.9413 33.9463 55.1806 34.9357 55.8683 35.7749C56.4684 36.5073 57.3672 37.0841 58.3991 37.399C58.9689 37.573 59.5333 37.6556 60.0685 37.6556C61.7063 37.6556 63.0686 36.881 63.4659 35.5798C63.9927 33.8534 62.5929 31.9476 60.2786 31.2412ZM61.5006 34.98C61.3618 35.4339 60.3182 35.8367 58.9988 35.4338C58.3602 35.2389 57.7984 34.8885 57.4574 34.4726C57.2866 34.2641 57.1048 33.9801 57.1676 33.6971C57.2207 33.4572 57.451 33.3094 57.6611 33.2174C58.2851 32.9441 59.0432 33.0127 59.6786 33.2067C60.9984 33.6093 61.6392 34.526 61.5006 34.98Z" fill="#001645"/>
</svg>
