<svg width="52" height="51" viewBox="0 0 52 51" fill="none" xmlns="http://www.w3.org/2000/svg">
    <path d="M22.0721 20.652C22.2613 20.6525 22.4521 20.584 22.5933 20.4425L23.3615 19.6723C23.4299 19.6038 23.4842 19.5224 23.5213 19.4329C23.5583 19.3433 23.5774 19.2473 23.5774 19.1503C23.5774 19.0534 23.5583 18.9574 23.5213 18.8678C23.4842 18.7783 23.4299 18.6969 23.3615 18.6283C23.2931 18.5598 23.2119 18.5054 23.1225 18.4683C23.0331 18.4312 22.9373 18.4121 22.8406 18.4121C22.7438 18.4121 22.648 18.4312 22.5586 18.4683C22.4693 18.5054 22.3881 18.5598 22.3197 18.6283L21.5511 19.3985C21.413 19.537 21.3354 19.7247 21.3354 19.9205C21.3354 20.1162 21.413 20.304 21.5511 20.4425C21.6888 20.5805 21.8799 20.6516 22.0721 20.652ZM31.085 28.9513L31.8533 28.1811C31.9217 28.1126 31.976 28.0312 32.013 27.9417C32.05 27.8521 32.0691 27.7561 32.0691 27.6592C32.0691 27.5622 32.05 27.4662 32.013 27.3767C31.976 27.2871 31.9217 27.2057 31.8533 27.1372C31.7849 27.0687 31.7037 27.0143 31.6143 26.9772C31.5249 26.94 31.4291 26.9209 31.3323 26.9209C31.2356 26.9209 31.1398 26.94 31.0504 26.9772C30.961 27.0143 30.8798 27.0687 30.8114 27.1372L30.0432 27.9074C29.9748 27.9759 29.9205 28.0573 29.8835 28.1468C29.8464 28.2364 29.8274 28.3324 29.8274 28.4293C29.8274 28.5263 29.8464 28.6222 29.8835 28.7118C29.9205 28.8014 29.9748 28.8827 30.0432 28.9513C30.3271 29.2357 30.8011 29.2357 31.085 28.9513ZM25.3731 22.3347C24.9675 22.3062 24.6156 22.6149 24.5884 23.0218C24.5373 23.7873 24.8282 24.5479 25.3869 25.1077C25.9034 25.6253 26.591 25.9137 27.296 25.9137C27.7558 25.9137 28.189 25.6345 28.1548 25.122C28.1484 25.0252 28.123 24.9307 28.0801 24.8438C28.0372 24.7569 27.9776 24.6793 27.9048 24.6155C27.8319 24.5517 27.7472 24.5029 27.6556 24.4719C27.5639 24.4409 27.467 24.4283 27.3705 24.4349C27.0305 24.4571 26.687 24.3226 26.4292 24.0638C26.1709 23.8054 26.0362 23.4617 26.0588 23.1206C26.0719 22.9253 26.007 22.7327 25.8784 22.5854C25.7498 22.438 25.568 22.3478 25.3731 22.3347ZM31.9642 18.5164C33.267 19.8219 35.4463 19.8204 36.7476 18.5164C38.0661 17.1953 38.0661 15.0451 36.7476 13.7239C35.4436 12.4174 33.2674 12.4185 31.9643 13.7239C30.6457 15.0451 30.6456 17.1953 31.9642 18.5164ZM33.0065 14.7682C33.7425 14.0304 34.9696 14.0312 35.7057 14.7682C36.4498 15.5139 36.4498 16.727 35.7057 17.4725C34.97 18.2096 33.741 18.2085 33.0065 17.4725C32.2624 16.727 32.2624 15.5139 33.0065 14.7682ZM34.5832 0.295715H34.5598C33.3196 0.295715 32.3003 1.30664 32.2878 2.54967C32.275 3.8051 33.2843 4.83679 34.5372 4.84988C37.4805 4.87981 40.2481 6.04488 42.3294 8.13051C44.4117 10.2168 45.5744 12.9899 45.6039 15.9395C45.6162 17.1722 46.647 18.1939 47.8761 18.1939H47.8995C49.1523 18.1812 50.1616 17.1492 50.149 15.8937C50.1071 11.7448 48.4716 7.84436 45.5437 4.91022C42.6157 1.97688 38.7234 0.337944 34.5833 0.295715H34.5832ZM47.8846 16.7173H47.876C47.4432 16.7197 47.0821 16.3555 47.0775 15.9249C47.0441 12.5861 45.7283 9.44746 43.3717 7.08651C41.016 4.72566 37.8838 3.40713 34.5521 3.37337C34.1116 3.36874 33.7571 3.00621 33.7617 2.56473C33.7658 2.12788 34.1242 1.77223 34.5686 1.77223C38.3205 1.81033 41.8483 3.2957 44.5019 5.95452C47.1555 8.61333 48.6378 12.1486 48.6754 15.9087C48.6796 16.3502 48.3251 16.7127 47.8846 16.7173Z" fill="#001645"/>
    <path d="M37.7533 12.7162C38.8819 13.847 39.5124 15.3504 39.5285 16.9495C39.5408 18.1816 40.5727 19.204 41.8007 19.204H41.8237C43.0766 19.1912 44.0862 18.1593 44.0735 16.9039C44.0455 14.1058 42.9423 11.4749 40.9672 9.4959C38.9925 7.51717 36.3673 6.41175 33.5749 6.38369L33.5513 6.3833C32.3111 6.3833 31.2918 7.39452 31.2792 8.63725C31.2666 9.89268 32.2754 10.9247 33.5287 10.9374C35.1244 10.9535 36.6247 11.5854 37.7533 12.7162ZM32.7528 8.65231C32.7574 8.21546 33.1154 7.85982 33.5598 7.85982C35.9643 7.88443 38.2245 8.83609 39.9253 10.5402C41.6256 12.244 42.5758 14.5095 42.6 16.9188C42.6042 17.3602 42.2496 17.7228 41.8091 17.7275H41.8007C41.3678 17.7297 41.0063 17.3664 41.002 16.9351C40.9822 14.9471 40.1984 13.0779 38.7956 11.6722C37.3928 10.2664 35.5272 9.48123 33.5437 9.46085C33.1031 9.45633 32.7482 9.09369 32.7528 8.65231ZM20.9792 13.2275C19.4961 13.2268 18.0114 13.7736 16.9151 14.8721L14.2741 17.5183C14.2056 17.5868 14.1514 17.6682 14.1143 17.7578C14.0773 17.8473 14.0582 17.9433 14.0582 18.0403C14.0582 18.1372 14.0773 18.2332 14.1143 18.3227C14.1514 18.4123 14.2056 18.4937 14.2741 18.5622C14.3425 18.6308 14.4237 18.6852 14.5131 18.7223C14.6025 18.7594 14.6983 18.7785 14.795 18.7785C14.8918 18.7785 14.9876 18.7594 15.077 18.7223C15.1664 18.6852 15.2476 18.6308 15.316 18.5622L17.9569 15.9161C19.605 14.2649 22.3553 14.2665 24.0015 15.9161L34.5602 26.4958C36.2268 28.1658 36.2268 30.8826 34.5602 32.5526L23.7464 43.3881C23.6779 43.4566 23.6236 43.538 23.5866 43.6276C23.5495 43.7172 23.5305 43.8133 23.5305 43.9103C23.5305 44.0072 23.5495 44.1033 23.5866 44.1929C23.6236 44.2825 23.6779 44.3639 23.7464 44.4324C24.0234 44.71 24.5 44.7209 24.7883 44.4324C24.7883 44.4324 35.5986 33.6004 35.6021 33.5966C37.8167 31.3779 37.8139 27.6679 35.6021 25.4518C35.6021 25.4518 25.048 14.8763 25.0435 14.8721C23.9517 13.7778 22.4662 13.2279 20.9792 13.2275ZM12.1901 19.6066L1.53195 30.2859C-0.709054 32.5314 -0.709054 36.1851 1.53195 38.4306L12.0905 49.0103C14.2948 51.219 18.0048 51.2294 20.2194 49.0103L22.7042 46.5207C22.7726 46.4522 22.8269 46.3708 22.8639 46.2813C22.901 46.1917 22.92 46.0957 22.92 45.9987C22.92 45.9018 22.901 45.8058 22.8639 45.7162C22.8269 45.6266 22.7726 45.5453 22.7042 45.4767C22.6358 45.4082 22.5545 45.3538 22.4652 45.3166C22.3758 45.2795 22.28 45.2604 22.1832 45.2604C22.0864 45.2604 21.9906 45.2795 21.9012 45.3166C21.8118 45.3538 21.7306 45.4082 21.6622 45.4767L19.1772 47.9664C17.511 49.6364 14.7991 49.6364 13.1328 47.9664L2.57435 37.3868C0.907744 35.7169 0.907744 32.9999 2.57435 31.3299L13.2322 20.6505C13.3702 20.512 13.4477 20.3243 13.4477 20.1285C13.4477 19.9328 13.3702 19.7451 13.2322 19.6066C13.1637 19.538 13.0825 19.4836 12.9931 19.4465C12.9036 19.4094 12.8078 19.3903 12.711 19.3903C12.6142 19.3903 12.5184 19.4094 12.429 19.4465C12.3395 19.4836 12.2583 19.538 12.1899 19.6066H12.1901Z" fill="#001645"/>
    <path d="M14.2453 28.9632C15.6983 30.4187 18.1331 30.4163 19.5832 28.9632C21.038 27.5056 21.0364 25.0708 19.5832 23.6143C18.1277 22.1559 15.6998 22.1574 14.2453 23.6143C12.7918 25.0712 12.7941 27.5086 14.2453 28.9632ZM15.2876 24.6587C16.174 23.7701 17.6557 23.7712 18.5413 24.6587C19.4263 25.5454 19.4239 27.0342 18.5413 27.9189C17.6538 28.8083 16.1744 28.8079 15.2872 27.9189C14.4008 27.0303 14.4015 25.5461 15.2876 24.6587ZM24.2084 37.3648C25.1793 37.3648 26.1502 37.0003 26.8773 36.2716C28.3489 34.797 28.3489 32.3977 26.8773 30.9231C25.423 29.4658 22.9924 29.4673 21.5395 30.9231C20.0679 32.3977 20.0679 34.797 21.5395 36.2716C22.2671 37.0007 23.238 37.3648 24.2084 37.3648ZM22.5815 31.967C23.4683 31.0785 24.95 31.0799 25.8356 31.967C26.7324 32.866 26.7324 34.3287 25.8356 35.2277C24.9484 36.1162 23.4675 36.1155 22.5815 35.2277C21.6847 34.3287 21.6847 32.866 22.5815 31.967ZM10.2019 29.2478C9.23069 29.2482 8.25971 29.6123 7.53334 30.3402C6.07942 31.797 6.08129 34.2337 7.53334 35.6887C8.98854 37.1467 11.4172 37.1452 12.8712 35.6887C14.3256 34.231 14.3241 31.7959 12.8712 30.3402C12.144 29.6119 11.1731 29.2478 10.2019 29.2478ZM11.829 34.6447C10.9418 35.5337 9.46204 35.533 8.57525 34.6447C7.68797 33.7558 7.68876 32.2727 8.57525 31.3845C9.46204 30.4959 10.9438 30.497 11.8294 31.3845C12.7146 32.2716 12.7127 33.7592 11.829 34.6447ZM17.496 44.1053C18.5045 44.1053 19.4523 43.7115 20.1649 42.9975C21.6366 41.5229 21.6366 39.1235 20.1649 37.649C18.7099 36.1908 16.2811 36.192 14.8271 37.649C13.3555 39.1235 13.3555 41.5228 14.8271 42.9975C15.5401 43.7114 16.488 44.1053 17.496 44.1053ZM15.8694 38.6929C16.7565 37.8039 18.2366 37.8047 19.123 38.6929C20.0203 39.5919 20.0203 41.0545 19.123 41.9531C18.236 42.8425 16.7558 42.8414 15.8694 41.9531C14.9722 41.0545 14.9722 39.5919 15.8694 38.693V38.6929Z" fill="#001645"/>
</svg>
