<svg width="76" height="76" viewBox="0 0 76 76" fill="none" xmlns="http://www.w3.org/2000/svg">
<path d="M71.25 39.25H66.2738C65.9188 38.1791 65.4882 37.1348 64.985 36.125L68.4988 32.6125C68.615 32.4964 68.7072 32.3586 68.7701 32.2068C68.833 32.0551 68.8654 31.8924 68.8654 31.7281C68.8654 31.5639 68.833 31.4012 68.7701 31.2495C68.7072 31.0977 68.615 30.9599 68.4988 30.8438L61.7075 24.05C62.3812 24.1747 63.0648 24.2383 63.75 24.24C65.6079 24.2421 67.4373 23.7836 69.0745 22.9056C70.7118 22.0276 72.1059 20.7574 73.1322 19.2087C74.1584 17.66 74.7848 15.8811 74.9552 14.0311C75.1256 12.181 74.8348 10.3176 74.1087 8.60752C74.0289 8.41899 73.904 8.25297 73.7449 8.12404C73.5859 7.99511 73.3976 7.90722 73.1967 7.86808C72.9957 7.82895 72.7882 7.83978 72.5924 7.89962C72.3966 7.95946 72.2185 8.06648 72.0738 8.21127L67.715 12.5713C67.5956 12.6866 67.5004 12.8245 67.4349 12.977C67.3694 13.1295 67.3349 13.2935 67.3334 13.4595C67.332 13.6255 67.3636 13.7901 67.4265 13.9437C67.4893 14.0973 67.5821 14.2369 67.6995 14.3543C67.8169 14.4716 67.9564 14.5644 68.1101 14.6273C68.2637 14.6901 68.4283 14.7218 68.5943 14.7203C68.7602 14.7189 68.9243 14.6844 69.0768 14.6189C69.2293 14.5534 69.3672 14.4582 69.4825 14.3388L72.3675 11.455C72.6955 13.2886 72.4298 15.1791 71.609 16.8512C70.7883 18.5234 69.4553 19.89 67.8041 20.7521C66.153 21.6143 64.2697 21.927 62.4285 21.6448C60.5873 21.3626 58.8842 20.5001 57.567 19.183C56.2499 17.8658 55.3875 16.1627 55.1052 14.3215C54.823 12.4803 55.1357 10.5971 55.9979 8.94588C56.8601 7.29469 58.2266 5.96173 59.8988 5.14097C61.5709 4.32022 63.4614 4.05451 65.295 4.38252L59.335 10.3438C59.1007 10.5782 58.969 10.8961 58.969 11.2275C58.969 11.559 59.1007 11.8769 59.335 12.1113L64.6387 17.415C64.8745 17.6427 65.1903 17.7687 65.518 17.7659C65.8457 17.763 66.1593 17.6315 66.391 17.3998C66.6228 17.168 66.7542 16.8545 66.7571 16.5268C66.7599 16.199 66.6339 15.8833 66.4062 15.6475L61.9863 11.2275L68.5388 4.67627C68.6835 4.53151 68.7906 4.35341 68.8504 4.15762C68.9102 3.96182 68.9211 3.75433 68.8819 3.55336C68.8428 3.3524 68.7549 3.16413 68.626 3.00509C68.497 2.84605 68.331 2.72112 68.1425 2.64127C66.1483 1.79374 63.9516 1.54095 61.8171 1.91336C59.6825 2.28576 57.7012 3.26746 56.1119 4.74017C54.5225 6.21289 53.3929 8.11378 52.8592 10.2138C52.3255 12.3138 52.4104 14.5234 53.1038 16.5763L51.0575 18.625C50.9512 18.4375 50.7976 18.2812 50.6121 18.1715C50.4265 18.0619 50.2155 18.0028 50 18H44.7225L44.2963 17.1388L46.2388 16.6175C46.3973 16.575 46.546 16.5017 46.6762 16.4017C46.8065 16.3018 46.9157 16.1771 46.9978 16.035C47.0799 15.8928 47.1331 15.7358 47.1545 15.573C47.1759 15.4102 47.165 15.2448 47.1225 15.0863L46.5312 12.875L48.7388 12.2838C48.9923 12.2157 49.2179 12.0696 49.3837 11.8661C49.5495 11.6626 49.6471 11.4121 49.6625 11.15L50 5.57502C50.0137 5.34305 49.9625 5.11187 49.8521 4.9074C49.7417 4.70294 49.5765 4.53329 49.375 4.41752L42.875 0.667516C42.7328 0.585248 42.5758 0.531822 42.4129 0.510292C42.25 0.488762 42.0845 0.499551 41.9258 0.542041C41.7671 0.584532 41.6183 0.657891 41.488 0.757923C41.3577 0.857955 41.2483 0.982697 41.1662 1.12502L31.5413 17.795L26.8812 13.125L27.7662 12.2413C27.8825 12.1252 27.9747 11.9873 28.0376 11.8356C28.1005 11.6838 28.1329 11.5212 28.1329 11.3569C28.1329 11.1926 28.1005 11.03 28.0376 10.8782C27.9747 10.7265 27.8825 10.5886 27.7662 10.4725L26.545 9.25252C26.9593 8.12956 27.6368 7.12231 28.5207 6.31519C29.4046 5.50808 30.4691 4.92463 31.625 4.61377C31.8697 4.54782 32.0886 4.40903 32.2527 4.2158C32.4167 4.02258 32.5181 3.78405 32.5435 3.53186C32.5689 3.27967 32.5169 3.02572 32.3946 2.80371C32.2724 2.5817 32.0855 2.40211 31.8587 2.28877L30.375 1.54752C28.7047 0.712536 26.8321 0.367553 24.974 0.552486C23.1158 0.73742 21.3479 1.44471 19.875 2.59252L18.9212 1.63877C18.6868 1.40443 18.369 1.27278 18.0375 1.27278C17.706 1.27278 17.3882 1.40443 17.1537 1.63877L14.0287 4.75627C13.801 4.99202 13.6751 5.30777 13.6779 5.63552C13.6808 5.96326 13.8122 6.27678 14.044 6.50854C14.2757 6.7403 14.5892 6.87176 14.917 6.87461C15.2447 6.87746 15.5605 6.75146 15.7962 6.52377L18.0325 4.29002L25.1025 11.36L17.1475 19.3163L10.0887 12.25L12.2737 10.0638C12.5014 9.82801 12.6274 9.51226 12.6246 9.18451C12.6217 8.85677 12.4903 8.54325 12.2585 8.31149C12.0268 8.07973 11.7132 7.94827 11.3855 7.94542C11.0578 7.94258 10.742 8.06857 10.5062 8.29627L7.4375 11.3613C7.32128 11.4774 7.22908 11.6152 7.16617 11.767C7.10327 11.9187 7.07089 12.0814 7.07089 12.2456C7.07089 12.4099 7.10327 12.5726 7.16617 12.7243C7.22908 12.8761 7.32128 13.0139 7.4375 13.13L8.32125 14.0125L6.5525 15.7813L5.66875 14.8975C5.43434 14.6632 5.11645 14.5315 4.785 14.5315C4.45354 14.5315 4.13566 14.6632 3.90125 14.8975L0.366246 18.4325C0.131907 18.6669 0.000263066 18.9848 0.000263066 19.3163C0.000263066 19.6477 0.131907 19.9656 0.366246 20.2L9.205 29.0388C9.43941 29.2731 9.75729 29.4047 10.0887 29.4047C10.4202 29.4047 10.7381 29.2731 10.9725 29.0388L14.5075 25.5C14.7418 25.2656 14.8735 24.9477 14.8735 24.6163C14.8735 24.2848 14.7418 23.9669 14.5075 23.7325L13.6237 22.8475L15.3912 21.08L16.2762 21.9638C16.5107 22.1981 16.8285 22.3297 17.16 22.3297C17.4915 22.3297 17.8093 22.1981 18.0437 21.9638L19.8112 20.195L24.7275 25.1113L19 30.84C18.8838 30.9561 18.7916 31.094 18.7287 31.2457C18.6658 31.3975 18.6334 31.5601 18.6334 31.7244C18.6334 31.8887 18.6658 32.0513 18.7287 32.2031C18.7916 32.3548 18.8838 32.4927 19 32.6088L22.5137 36.1213C22.0513 37.0554 21.6513 38.0192 21.3162 39.0063L6.875 30.6675C6.5879 30.5018 6.24671 30.4568 5.9265 30.5426C5.60628 30.6284 5.33326 30.8379 5.1675 31.125L0.167496 39.785C0.00174324 40.0721 -0.043175 40.4133 0.0426223 40.7335C0.12842 41.0537 0.337905 41.3268 0.624996 41.4925L13.0562 48.67L6.6175 52.3875C6.1905 52.6335 5.81618 52.9613 5.51594 53.3521C5.21571 53.7429 4.99544 54.189 4.86774 54.665C4.74004 55.141 4.70741 55.6375 4.77171 56.1261C4.83602 56.6147 4.99599 57.0858 5.2425 57.5125L10.2425 66.1738C10.4592 66.541 10.7369 66.8686 11.0637 67.1425L4.375 71C4.23268 71.0821 4.10793 71.1914 4.0079 71.3218C3.90787 71.4521 3.83451 71.6009 3.79202 71.7596C3.74953 71.9183 3.73874 72.0838 3.76027 72.2467C3.7818 72.4095 3.83523 72.5666 3.9175 72.7088L5.1675 74.8738C5.24897 75.0171 5.35799 75.1428 5.48828 75.2439C5.61856 75.3449 5.76754 75.4191 5.92663 75.4623C6.08572 75.5055 6.25179 75.5168 6.41526 75.4955C6.57874 75.4743 6.73639 75.4209 6.87916 75.3385C7.02192 75.256 7.14697 75.1462 7.2471 75.0152C7.34724 74.8843 7.42048 74.7348 7.46262 74.5754C7.50476 74.4161 7.51495 74.2499 7.49262 74.0866C7.47029 73.9233 7.41587 73.766 7.3325 73.6238L6.7075 72.5413L16.25 67.0313L20.765 64.425L27.84 71.5C27.9561 71.6162 28.094 71.7084 28.2457 71.7713C28.3974 71.8342 28.5601 71.8666 28.7244 71.8666C28.8886 71.8666 29.0513 71.8342 29.2031 71.7713C29.3548 71.7084 29.4927 71.6162 29.6087 71.5L33.1213 67.9863C34.1323 68.4892 35.1778 68.9194 36.25 69.2738V74.25C36.25 74.5815 36.3817 74.8995 36.6161 75.1339C36.8505 75.3683 37.1685 75.5 37.5 75.5H50C50.3315 75.5 50.6495 75.3683 50.8839 75.1339C51.1183 74.8995 51.25 74.5815 51.25 74.25V69.2738C52.3209 68.9188 53.3652 68.4882 54.375 67.985L57.8875 71.4988C58.0036 71.615 58.1415 71.7072 58.2932 71.7701C58.445 71.833 58.6076 71.8654 58.7719 71.8654C58.9361 71.8654 59.0988 71.833 59.2506 71.7701C59.4023 71.7072 59.5402 71.615 59.6562 71.4988L68.5 62.66C68.6162 62.5439 68.7084 62.4061 68.7713 62.2543C68.8342 62.1026 68.8666 61.9399 68.8666 61.7756C68.8666 61.6114 68.8342 61.4487 68.7713 61.297C68.7084 61.1452 68.6162 61.0074 68.5 60.8913L64.985 57.375C65.4882 56.3652 65.9188 55.3209 66.2738 54.25H71.25C71.5815 54.25 71.8995 54.1183 72.1339 53.8839C72.3683 53.6495 72.5 53.3315 72.5 53C72.5 52.6685 72.3683 52.3506 72.1339 52.1161C71.8995 51.8817 71.5815 51.75 71.25 51.75H65.3512C65.0801 51.75 64.8163 51.8381 64.5996 52.0011C64.3829 52.1642 64.2251 52.3932 64.15 52.6538C63.7163 54.1672 63.1151 55.6275 62.3575 57.0075C62.2266 57.2447 62.1762 57.518 62.2141 57.7863C62.252 58.0546 62.376 58.3033 62.5675 58.495L65.8475 61.7763L58.7763 68.8475L55.5 65.5675C55.3083 65.376 55.0596 65.252 54.7913 65.2141C54.523 65.1763 54.2497 65.2266 54.0125 65.3575C52.6324 66.1151 51.1722 66.7163 49.6588 67.15C49.3982 67.2251 49.1691 67.3829 49.0061 67.5996C48.8431 67.8163 48.755 68.0801 48.755 68.3513V73H38.75V68.3513C38.75 68.0801 38.6619 67.8163 38.4989 67.5996C38.3359 67.3829 38.1068 67.2251 37.8463 67.15C36.3328 66.7163 34.8726 66.1151 33.4925 65.3575C33.2553 65.2266 32.982 65.1763 32.7137 65.2141C32.4454 65.252 32.1967 65.376 32.005 65.5675L28.7237 68.8475L21.6525 61.7763L24.9325 58.5C25.124 58.3083 25.248 58.0596 25.2859 57.7913C25.3238 57.5231 25.2734 57.2497 25.1425 57.0125C24.3849 55.6325 23.7837 54.1722 23.35 52.6588C23.2758 52.3973 23.1184 52.1671 22.9016 52.0031C22.6849 51.8392 22.4206 51.7503 22.1487 51.75H17.5V41.75H22.1487C22.4199 41.7501 22.6837 41.6619 22.9004 41.4989C23.1171 41.3359 23.2749 41.1068 23.35 40.8463C23.7837 39.3329 24.3849 37.8726 25.1425 36.4925C25.2734 36.2553 25.3238 35.982 25.2859 35.7137C25.248 35.4454 25.124 35.1967 24.9325 35.005L21.6525 31.7238L28.7237 24.6525L32 27.9325C32.1917 28.124 32.4404 28.248 32.7087 28.2859C32.977 28.3238 33.2503 28.2735 33.4875 28.1425C34.8676 27.3849 36.3278 26.7837 37.8412 26.35C38.1027 26.2758 38.3329 26.1184 38.4969 25.9016C38.6609 25.6849 38.7497 25.4206 38.75 25.1488V20.5H48.75V25.1488C48.75 25.4199 48.8381 25.6837 49.0011 25.9004C49.1641 26.1171 49.3932 26.2749 49.6538 26.35C51.1672 26.7837 52.6274 27.3849 54.0075 28.1425C54.2447 28.2735 54.518 28.3238 54.7863 28.2859C55.0546 28.248 55.3033 28.124 55.495 27.9325L58.7763 24.6525L65.8475 31.7238L62.5675 35C62.376 35.1917 62.252 35.4404 62.2141 35.7087C62.1762 35.977 62.2266 36.2503 62.3575 36.4875C63.1151 37.8676 63.7163 39.3279 64.15 40.8413C64.2251 41.1018 64.3829 41.3309 64.5996 41.4939C64.8163 41.6569 65.0801 41.745 65.3512 41.745H70V47.995C70 48.3265 70.1317 48.6445 70.3661 48.8789C70.6005 49.1133 70.9185 49.245 71.25 49.245C71.5815 49.245 71.8995 49.1133 72.1339 48.8789C72.3683 48.6445 72.5 48.3265 72.5 47.995V40.5C72.5 40.1685 72.3683 39.8506 72.1339 39.6161C71.8995 39.3817 71.5815 39.25 71.25 39.25ZM10.0887 26.3875L3.0175 19.3163L4.785 17.5488L11.8562 24.625L10.0887 26.3875ZM11.8562 21.0838L8.32 17.5488L10.0887 15.78L13.625 19.3163L11.8562 21.0838ZM6.7075 33.4588L8.8725 34.7088L6.9975 37.9588C6.91412 38.101 6.85971 38.2583 6.83737 38.4216C6.81504 38.5849 6.82524 38.7511 6.86737 38.9104C6.90951 39.0698 6.98275 39.2193 7.08289 39.3502C7.18302 39.4812 7.30807 39.591 7.45084 39.6735C7.5936 39.7559 7.75126 39.8093 7.91473 39.8305C8.07821 39.8518 8.24427 39.8405 8.40336 39.7973C8.56245 39.7541 8.71143 39.6799 8.84171 39.5788C8.972 39.4778 9.08102 39.3521 9.1625 39.2088L11.0375 35.9588L13.2025 37.2088L11.3275 40.4588C11.2441 40.601 11.1897 40.7583 11.1674 40.9216C11.145 41.0849 11.1552 41.2511 11.1974 41.4105C11.2395 41.5698 11.3128 41.7193 11.4129 41.8502C11.513 41.9812 11.6381 42.091 11.7808 42.1735C11.9236 42.2559 12.0813 42.3093 12.2447 42.3305C12.4082 42.3518 12.5743 42.3405 12.7334 42.2973C12.8925 42.2541 13.0414 42.1799 13.1717 42.0789C13.302 41.9779 13.411 41.8521 13.4925 41.7088L15.3675 38.4588L16.7425 39.2513H16.25C15.9185 39.2513 15.6005 39.383 15.3661 39.6174C15.1317 39.8518 15 40.1697 15 40.5013V46.9063L2.9575 39.9525L6.7075 33.4588ZM15.6462 56.2575C15.8855 56.3211 16.1004 56.4544 16.2639 56.6403C16.4273 56.8262 16.5318 57.0565 16.5642 57.3019C16.5966 57.5473 16.5554 57.7968 16.4459 58.0188C16.3363 58.2408 16.1633 58.4252 15.9487 58.5488C15.6605 58.7127 15.3196 58.7576 14.9987 58.6738C14.7047 58.5963 14.449 58.4143 14.2795 58.1619C14.11 57.9095 14.0383 57.6039 14.0778 57.3024C14.1174 57.001 14.2654 56.7242 14.4943 56.5241C14.7232 56.3239 15.0172 56.214 15.3212 56.215C15.4309 56.2151 15.5401 56.2302 15.6462 56.2575ZM21.2262 54.25C21.5812 55.3209 22.0118 56.3652 22.515 57.375L19 60.8913C18.7787 61.1151 18.6506 61.4145 18.6415 61.7292C18.6325 62.0438 18.7432 62.3501 18.9512 62.5863L14.1162 65.375C13.8294 65.5405 13.4887 65.5855 13.1687 65.5C13.0101 65.4582 12.8614 65.3851 12.7313 65.2851C12.6012 65.1851 12.4924 65.0601 12.4112 64.9175L7.41125 56.255C7.24618 55.9683 7.20152 55.6278 7.28704 55.3082C7.37256 54.9886 7.58129 54.716 7.8675 54.55L15 50.435V53C15.0057 53.2654 15.0979 53.5217 15.2625 53.73C14.3593 53.7435 13.4914 54.0831 12.819 54.6864C12.1467 55.2896 11.7151 56.1156 11.6041 57.0121C11.4931 57.9086 11.71 58.8149 12.2149 59.5639C12.7198 60.313 13.4786 60.8541 14.3512 61.0875C14.6703 61.1715 14.9989 61.2135 15.3287 61.2125C16.1505 61.2149 16.9502 60.9462 17.6038 60.4482C18.2575 59.9501 18.7287 59.2504 18.9445 58.4575C19.1603 57.6646 19.1087 56.8226 18.7976 56.062C18.4865 55.3013 17.9334 54.6645 17.2237 54.25H21.2262ZM28.2663 3.37502C26.7168 4.34748 25.4631 5.72564 24.6412 7.36002L21.6625 4.37502C22.6083 3.7035 23.6985 3.26321 24.8454 3.08953C25.9923 2.91586 27.164 3.01364 28.2663 3.37502ZM33.125 25.515L29.6087 22C29.4927 21.8838 29.3548 21.7916 29.2031 21.7287C29.0513 21.6658 28.8886 21.6334 28.7244 21.6334C28.5601 21.6334 28.3974 21.6658 28.2457 21.7287C28.094 21.7916 27.9561 21.8838 27.84 22L26.5 23.3475L21.5837 18.4313L25.1187 14.8963L34.9388 24.715C34.3225 24.9545 33.7174 25.2214 33.125 25.515ZM37.5 18C37.1685 18 36.8505 18.1317 36.6161 18.3661C36.3817 18.6006 36.25 18.9185 36.25 19.25V22.5L33.375 19.625L42.7125 3.45752L47.4625 6.19627L47.2275 10.1063L44.6825 10.7875C44.5239 10.83 44.3753 10.9033 44.245 11.0033C44.1148 11.1032 44.0055 11.2279 43.9234 11.3701C43.8414 11.5123 43.7881 11.6692 43.7667 11.832C43.7453 11.9948 43.7562 12.1602 43.7988 12.3188L44.3913 14.5263L42.1825 15.1175C42.0035 15.1643 41.837 15.2502 41.6953 15.3691C41.5535 15.488 41.4398 15.6369 41.3626 15.8051C41.2853 15.9732 41.2464 16.1564 41.2485 16.3414C41.2507 16.5265 41.2939 16.7087 41.375 16.875L41.9287 18H37.5ZM54.375 25.515C53.3652 25.0119 52.3209 24.5812 51.25 24.2263V21.965L54.2363 18.9775C55.0778 20.33 56.2008 21.4853 57.5288 22.365L54.375 25.515Z" fill="#001645"/>
<path d="M43.75 36.75C45.6314 36.752 47.4739 37.2859 49.065 38.29C49.2038 38.3839 49.36 38.4489 49.5244 38.4812C49.6888 38.5135 49.858 38.5124 50.022 38.478C50.186 38.4436 50.3414 38.3766 50.4789 38.281C50.6165 38.1853 50.7334 38.063 50.8228 37.9213C50.9121 37.7795 50.9721 37.6213 50.9991 37.4559C51.026 37.2905 51.0195 37.1214 50.9798 36.9587C50.9401 36.7959 50.8682 36.6427 50.7681 36.5083C50.6681 36.3739 50.542 36.261 50.3975 36.1763C47.7906 34.5349 44.6703 33.9115 41.6328 34.4255C38.5953 34.9394 35.8537 36.5544 33.9318 38.9621C32.01 41.3697 31.0426 44.4011 31.2147 47.4769C31.3867 50.5528 32.686 53.4574 34.8643 55.6357C37.0427 57.814 39.9473 59.1134 43.0231 59.2854C46.0989 59.4574 49.1303 58.49 51.5379 56.5682C53.9456 54.6463 55.5607 51.9047 56.0746 48.8672C56.5885 45.8298 55.9652 42.7094 54.3238 40.1025C54.239 39.958 54.1261 39.8319 53.9917 39.7319C53.8573 39.6319 53.7041 39.5599 53.5414 39.5202C53.3786 39.4805 53.2095 39.474 53.0441 39.501C52.8788 39.5279 52.7205 39.5879 52.5788 39.6772C52.437 39.7666 52.3147 39.8835 52.2191 40.0211C52.1234 40.1586 52.0564 40.314 52.022 40.478C51.9876 40.642 51.9865 40.8112 52.0188 40.9756C52.0511 41.14 52.1161 41.2962 52.21 41.435C53.3871 43.3124 53.9068 45.5277 53.6876 47.7327C53.4683 49.9377 52.5224 52.0073 50.9987 53.616C49.4749 55.2248 47.4597 56.2816 45.2699 56.6202C43.0801 56.9587 40.8398 56.5599 38.9013 55.4865C36.9629 54.413 35.4361 52.7257 34.5612 50.6899C33.6862 48.6541 33.5127 46.3852 34.0678 44.24C34.623 42.0948 35.8753 40.195 37.628 38.8392C39.3806 37.4833 41.5341 36.7484 43.75 36.75Z" fill="#001645"/>
</svg>
