<svg width="69" height="70" viewBox="0 0 69 70" fill="none" xmlns="http://www.w3.org/2000/svg">
<path d="M32.3793 -1.87589e-05C32.1991 -0.00591771 32.0202 0.032371 31.8577 0.111598C30.175 0.960519 28.7384 2.23805 27.6884 3.8192C26.6384 5.40034 26.011 7.23093 25.8676 9.13185C24.0502 9.90903 22.9011 10.062 22.078 9.99998C21.263 9.94624 20.7251 9.68167 20.0202 9.40469C19.3152 9.12772 18.3291 8.85901 17.2492 9.21867C16.1735 9.57832 15.0896 10.401 13.5818 11.9471C12.0741 13.4973 11.2755 14.6135 10.9372 15.709C10.599 16.8086 10.8802 17.7966 11.1654 18.5035C11.4507 19.2104 11.7155 19.7437 11.7889 20.5705C11.8582 21.3972 11.74 22.563 11.0106 24.3902C10.785 24.964 10.5195 25.5207 10.216 26.0562C9.68626 26.1926 9.16467 26.2629 8.62679 26.2464H7.53064V25.1591C7.53118 25.0153 7.50378 24.8727 7.45001 24.7396C7.39623 24.6065 7.31714 24.4854 7.21725 24.3833C7.11735 24.2812 6.99861 24.2 6.8678 24.1445C6.737 24.0889 6.59668 24.0601 6.45487 24.0595H1.07603C0.789637 24.0595 0.514974 24.1749 0.312464 24.3804C0.109954 24.5858 -0.0038147 24.8645 -0.0038147 25.155C-0.0038147 25.4455 0.109954 25.7242 0.312464 25.9296C0.514974 26.1351 0.789637 26.2505 1.07603 26.2505H5.37503V50.3059H1.07603C0.789637 50.3059 0.514974 50.4213 0.312464 50.6268C0.109954 50.8322 -0.0038147 51.1108 -0.0038147 51.4014C-0.0038147 51.6919 0.109954 51.9706 0.312464 52.176C0.514974 52.3815 0.789637 52.4969 1.07603 52.4969H6.45487C6.73986 52.4958 7.01286 52.3805 7.21437 52.176C7.41589 51.9716 7.52957 51.6946 7.53064 51.4055V50.3514C9.01798 50.4754 10.0937 50.8557 11.198 51.3766C10.9413 51.976 10.6968 52.6622 10.7865 53.5552C10.9169 54.8574 11.7318 56.143 13.5818 58.0446C15.0896 59.5907 16.1735 60.4175 17.2492 60.7772C18.3291 61.1409 19.3152 60.8722 20.0202 60.5953C20.7251 60.3142 21.2589 60.0578 22.0821 59.9958C22.9011 59.938 24.0543 60.0785 25.8472 60.864C30.0566 62.7077 29.3598 64.1711 30.5456 65.9363C30.6103 66.0279 30.6887 66.1088 30.7779 66.1761C31.8047 68.4291 34.0581 70 36.6579 70C39.2658 70 41.507 68.4291 42.5339 66.1678C42.6213 66.1015 42.6983 66.0221 42.7621 65.9322C44.0049 64.0636 43.2103 62.7366 47.4482 60.8598C49.2411 60.0703 50.3943 59.938 51.2175 59.9958C52.0365 60.0537 52.5744 60.3142 53.2794 60.5953C53.9843 60.8722 54.9704 61.1409 56.0503 60.7772C57.126 60.4175 58.21 59.5907 59.7177 58.0446C61.2254 56.4944 62.0241 55.3865 62.3663 54.291C62.7046 53.1914 62.4193 52.2034 62.13 51.4965C61.8448 50.7896 61.5799 50.2563 61.5106 49.4295C61.4413 48.6027 61.5595 47.4369 62.293 45.6097C63.0265 43.7825 63.7314 42.8565 64.3508 42.315C64.9702 41.7776 65.5325 41.5791 66.2253 41.2815C66.9098 40.9839 67.79 40.4961 68.3075 39.4791C68.821 38.4704 69.0166 37.131 69.0003 34.9979C69.0166 32.8648 68.821 31.5254 68.3075 30.5209C67.79 29.508 66.9098 29.0078 66.2212 28.7102C65.5325 28.4125 64.9702 28.2265 64.3508 27.685C63.7314 27.1434 63.0224 26.2174 62.293 24.3902C61.5595 22.563 61.4373 21.3972 61.5106 20.5705C61.5799 19.7437 61.8448 19.2104 62.13 18.5035C62.4152 17.8007 62.7005 16.8086 62.3623 15.709C62.0241 14.6135 61.2213 13.4973 59.7177 11.9471C58.21 10.401 57.126 9.57832 56.0503 9.21867C54.9704 8.85901 53.9843 9.12772 53.2794 9.40469C52.5744 9.68167 52.0365 9.94211 51.2175 10.0041C50.3943 10.062 49.2534 9.9049 47.4278 9.13185C47.2826 7.23302 46.6549 5.40476 45.6058 3.82534C44.5567 2.24593 43.1221 0.969275 41.4418 0.119865C41.277 0.0366916 41.0939 -0.00233734 40.91 0.00648685C40.7261 0.015311 40.5474 0.0716953 40.391 0.170282C40.2347 0.26887 40.1057 0.406385 40.0165 0.569763C39.9272 0.733142 39.8806 0.916956 39.8811 1.10374V9.15252L36.6498 10.7937L33.4184 9.15252V1.09134C33.4175 0.808536 33.3089 0.537023 33.1152 0.333611C32.9216 0.1302 32.6578 0.0106519 32.3793 -1.87589e-05ZM42.0368 3.0839C44.0049 4.62173 45.2763 7.32119 45.2804 9.9049C45.2804 12.9433 43.7523 15.6097 41.4418 17.1806C41.2949 17.281 41.1746 17.4164 41.0915 17.575C41.0084 17.7336 40.9649 17.9105 40.9651 18.0901V26.2505H39.6203C38.7483 23.1459 35.8103 20.7854 32.3345 20.7854V18.0984C32.3352 17.918 32.2921 17.7403 32.209 17.5809C32.1258 17.4216 32.0051 17.2855 31.8577 17.1848C30.6769 16.3867 29.7089 15.3048 29.0399 14.0354C28.3709 12.766 28.0216 11.3485 28.0232 9.90903C28.0232 7.32119 29.262 4.65893 31.2587 3.08803V9.82635C31.2587 10.2397 31.4869 10.6201 31.8495 10.8061L36.1648 12.9971C36.3142 13.0725 36.4788 13.1117 36.6457 13.1117C36.8125 13.1117 36.9771 13.0725 37.1265 12.9971L41.4459 10.8144C41.6247 10.7222 41.7747 10.5814 41.8791 10.4076C41.9835 10.2338 42.0381 10.034 42.0368 9.83049V3.0839ZM18.4106 11.2112C18.651 11.2112 18.867 11.2939 19.2419 11.4386C19.8368 11.6742 20.7088 12.0959 21.9313 12.1827C23.003 12.2571 24.311 12.0752 25.9776 11.4427C26.3797 14.3175 27.8891 16.9131 30.1748 18.6606V20.7813H23.7079C20.1628 20.7813 17.4 22.3109 15.0203 23.7123C14.3805 24.0843 13.7693 24.4481 13.1784 24.7747C13.863 22.9392 14.0423 21.5295 13.9445 20.3844C13.8345 19.1525 13.4025 18.2679 13.1621 17.6726C12.9176 17.0773 12.8443 16.8789 13.0032 16.3662C13.1662 15.8495 13.7204 14.9276 15.1222 13.4932C16.5198 12.0545 17.4204 11.4717 17.9338 11.3022C18.0882 11.2456 18.2465 11.2149 18.4106 11.2112ZM55.3698 11.3022C55.8832 11.4717 56.7838 12.0545 58.1814 13.4932C59.5832 14.9276 60.1415 15.8495 60.3004 16.3662C60.4634 16.8789 60.3819 17.0773 60.1415 17.6726C59.897 18.2679 59.4691 19.1525 59.3632 20.3844C59.2572 21.6205 59.4732 23.1624 60.2922 25.2129C61.1154 27.2633 62.02 28.5283 62.9409 29.3385C63.87 30.1488 64.7909 30.4754 65.3777 30.7276C65.9685 30.9839 66.1641 31.0583 66.3964 31.5171C66.6327 31.9801 66.8609 33.0095 66.8609 34.9979C66.8609 36.9863 66.6327 38.0116 66.3964 38.4704C66.1641 38.9293 65.9685 39.0161 65.3777 39.2724C64.7909 39.5246 63.87 39.8512 62.945 40.6614C62.02 41.4717 61.1113 42.7325 60.2963 44.7871C59.4813 46.8416 59.2572 48.3795 59.3591 49.6114C59.4691 50.8474 59.901 51.728 60.1415 52.3274C60.386 52.9227 60.4593 53.117 60.3045 53.6337C60.1415 54.1505 59.5832 55.0723 58.1855 56.5068C56.7878 57.9413 55.8832 58.5242 55.3738 58.6978C54.8604 58.8673 54.6567 58.7929 54.0617 58.5614C53.4668 58.3257 52.5907 57.8999 51.3723 57.8173C50.1498 57.7304 48.6258 57.9785 46.6088 58.8425C44.987 59.537 43.8868 60.2687 43.1166 61.0376V54.0967C44.0783 53.5304 44.8117 52.5961 45.1174 51.4923C48.2881 49.817 50.907 47.2379 52.6518 44.0723C54.3966 40.9067 55.1912 37.2928 54.9378 33.675C54.7209 30.2769 53.5777 27.0068 51.6357 24.2293C49.6937 21.4519 47.0293 19.2763 43.9397 17.9454C45.7856 16.2486 46.983 13.9462 47.3219 11.4427C48.9926 12.0752 50.2965 12.2571 51.3682 12.1827C52.5907 12.0959 53.4668 11.6742 54.0577 11.4386C54.3191 11.3144 54.6009 11.2401 54.8889 11.2195C55.0547 11.2086 55.2166 11.2369 55.3698 11.3022ZM43.1207 19.9628C45.8336 21.1621 48.17 23.094 49.8751 25.5479C51.5802 28.0017 52.5886 30.8833 52.7904 33.8786C52.9921 36.8739 52.3795 39.8679 51.0193 42.5342C49.6591 45.2006 47.6035 47.4369 45.0766 48.9996C44.9051 48.4497 44.6282 47.9398 44.2616 47.4989C44.843 47.1454 45.334 46.6577 45.6945 46.0754C46.0551 45.493 46.2751 44.8326 46.3366 44.1478C46.3982 43.463 46.2995 42.7731 46.0487 42.1343C45.7979 41.4954 45.402 40.9256 44.8932 40.4712C45.3533 40.0612 45.7218 39.5563 45.9742 38.9903C46.2267 38.4243 46.3573 37.8102 46.3573 37.1889C46.3573 36.5676 46.2267 35.9535 45.9742 35.3875C45.7218 34.8215 45.3533 34.3166 44.8932 33.9066C45.4842 33.3823 45.9227 32.7041 46.1613 31.9454C46.3999 31.1866 46.4296 30.3761 46.2471 29.6015C46.0646 28.8269 45.6769 28.1176 45.1259 27.5503C44.5748 26.983 43.8815 26.5793 43.1207 26.3828V19.9628ZM23.7039 22.9681H32.3345C35.3417 22.9681 37.7337 25.432 37.7337 28.1604V34.4481C37.7375 34.8091 37.6702 35.1672 37.5358 35.5015C37.4014 35.8358 37.2025 36.1395 36.9509 36.3948C36.6993 36.6501 36.3999 36.8518 36.0704 36.9882C35.7409 37.1245 35.3879 37.1928 35.032 37.1889C34.6764 37.1928 34.3235 37.1245 33.9943 36.9881C33.665 36.8517 33.3659 36.6499 33.1146 36.3945C32.8633 36.1392 32.6648 35.8355 32.5308 35.5012C32.3969 35.167 32.3301 34.8089 32.3345 34.4481V30.6242C32.3345 30.3337 32.2207 30.055 32.0182 29.8496C31.8157 29.6441 31.541 29.5287 31.2546 29.5287C30.9682 29.5287 30.6936 29.6441 30.491 29.8496C30.2885 30.055 30.1748 30.3337 30.1748 30.6242V30.9673C29.6432 31.7822 28.939 32.4664 28.1134 32.9698C27.2879 33.4733 26.3619 33.7833 25.4031 33.8772C24.4444 33.9711 23.477 33.8465 22.5718 33.5126C21.6666 33.1786 20.8463 32.6438 20.1709 31.9471C20.0743 31.8339 19.9558 31.742 19.8228 31.6772C19.6898 31.6123 19.5452 31.5757 19.3977 31.5698C19.2502 31.5638 19.1031 31.5886 18.9655 31.6426C18.8278 31.6965 18.7025 31.7786 18.5974 31.8836C18.4922 31.9886 18.4093 32.1143 18.3539 32.2531C18.2985 32.3919 18.2717 32.5407 18.2752 32.6904C18.2787 32.84 18.3124 32.9874 18.3743 33.1233C18.4361 33.2593 18.5247 33.3809 18.6347 33.4808C20.1338 35.0225 22.1424 35.9466 24.2733 36.0749C26.4043 36.2031 28.5065 35.5264 30.1748 34.1753C30.1992 40.8474 30.1829 47.8379 30.1829 53.5882C21.8457 53.4973 17.9827 52.224 15.2444 50.9549C12.6691 49.7602 10.8517 48.4084 7.52657 48.1686V28.4332H8.57789C11.4181 28.5159 13.7448 26.9863 16.0879 25.6097C18.4269 24.2373 20.7699 22.9681 23.7039 22.9681ZM39.8934 28.4332H42.0531C43.2633 28.4332 44.2087 29.3923 44.2087 30.6242C44.2087 31.8561 43.2633 32.8152 42.049 32.8152H39.8934V28.4332ZM39.8608 34.9979H42.049C43.2633 34.9979 44.2087 35.957 44.2087 37.1889C44.2087 38.4208 43.2633 39.3799 42.049 39.3799H38.8094C38.2604 39.382 37.7319 39.1687 37.3343 38.7846C38.7035 38.0322 39.6815 36.6349 39.8608 34.9979ZM32.3467 38.5448C33.1209 39.0698 34.0418 39.3758 35.0565 39.3758C35.3091 39.7891 35.6107 40.1612 35.9611 40.4712C35.5018 40.8813 35.1338 41.386 34.8818 41.9516C34.6298 42.5172 34.4994 43.1308 34.4994 43.7515C34.4994 44.3723 34.6298 44.9859 34.8818 45.5515C35.1338 46.1171 35.5018 46.6217 35.9611 47.0318C35.0646 47.8338 34.4941 49.0037 34.4941 50.3059C34.4941 52.7118 36.4379 54.6879 38.8135 54.6879H40.9569L40.9651 63.4353C40.9651 65.8743 39.0702 67.8131 36.662 67.8131C36.0939 67.8181 35.5306 67.7082 35.0048 67.49C34.4791 67.2717 34.0014 66.9494 33.5997 66.5419C33.198 66.1344 32.8803 65.6498 32.6652 65.1165C32.4501 64.5831 32.3418 64.0116 32.3467 63.4353V38.5448ZM38.8094 41.5626H42.049C43.2633 41.5626 44.2087 42.5217 44.2087 43.7536C44.2087 44.9814 43.2633 45.9446 42.049 45.9446H38.8094C38.5248 45.9485 38.2422 45.8945 37.9785 45.7857C37.7147 45.677 37.4751 45.5158 37.2738 45.3115C37.0725 45.1073 36.9135 44.8642 36.8063 44.5966C36.6992 44.329 36.6459 44.0424 36.6498 43.7536C36.6498 42.5217 37.5951 41.5626 38.8094 41.5626ZM38.8094 48.1273H40.9691C42.1794 48.1273 43.1247 49.0781 43.1247 50.3059C43.1247 51.5378 42.1794 52.4969 40.9651 52.4969H38.8094C38.5246 52.5013 38.2418 52.4477 37.9778 52.3392C37.7138 52.2307 37.4739 52.0694 37.2725 51.8651C37.0711 51.6607 36.9122 51.4174 36.8052 51.1496C36.6982 50.8818 36.6454 50.5948 36.6498 50.3059C36.6459 50.0177 36.6992 49.7316 36.8065 49.4647C36.9138 49.1978 37.073 48.9555 37.2744 48.7522C37.4759 48.549 37.7157 48.3889 37.9794 48.2815C38.2431 48.1742 38.5254 48.1217 38.8094 48.1273ZM13.1621 52.3646C13.5329 52.5547 13.9282 52.749 14.3561 52.9475C17.3104 54.3158 21.6134 55.68 30.187 55.7751V61.0583C29.4209 60.2894 28.3207 59.537 26.6948 58.8425C24.6778 57.9743 23.1537 57.7263 21.9354 57.8173C20.7129 57.8999 19.8368 58.3257 19.2459 58.5614C18.6469 58.7929 18.4391 58.8673 17.9297 58.6978C17.4163 58.5242 16.5198 57.9454 15.1181 56.5068C13.4066 54.7457 12.9869 53.8115 12.9421 53.3361C12.9378 52.9991 13.0133 52.6659 13.1621 52.3646ZM36.6538 62.3439C36.3685 62.3439 36.0949 62.4589 35.8932 62.6636C35.6914 62.8682 35.5781 63.1458 35.5781 63.4353C35.5781 63.7247 35.6914 64.0023 35.8932 64.207C36.0949 64.4117 36.3685 64.5266 36.6538 64.5266C36.9391 64.5266 37.2128 64.4117 37.4145 64.207C37.6163 64.0023 37.7296 63.7247 37.7296 63.4353C37.7296 63.1458 37.6163 62.8682 37.4145 62.6636C37.2128 62.4589 36.9391 62.3439 36.6538 62.3439Z" fill="#001645"/>
</svg>
