<svg width="53" height="70" viewBox="0 0 53 70" fill="none" xmlns="http://www.w3.org/2000/svg">
<path d="M1.58328 58.3341H11.6688C11.9588 58.3341 12.237 58.2189 12.4421 58.0138C12.6473 57.8086 12.7625 57.5304 12.7625 57.2404V55.638H16.9133L20.2656 58.6437C21.7288 59.9562 23.6255 60.6816 25.5911 60.6802H31.7161V62.8677C31.7161 64.6552 32.4262 66.3695 33.6901 67.6334C34.954 68.8973 36.6683 69.6074 38.4558 69.6074C40.2433 69.6074 41.9575 68.8973 43.2215 67.6334C44.4854 66.3695 45.1955 64.6552 45.1955 62.8677V60.6802H45.435C46.4271 60.7127 47.3918 60.3515 48.1184 59.6752C48.8451 58.999 49.2747 58.0627 49.3134 57.0708V55.218C49.3129 54.5661 49.1254 53.928 48.7731 53.3794C49.3866 53.0951 49.9074 52.6437 50.276 52.0768C50.6445 51.51 50.8458 50.8508 50.8567 50.1747V48.3285C50.8543 47.8554 50.7555 47.3877 50.5663 46.9541C50.3772 46.5204 50.1016 46.1299 49.7564 45.8063C50.1016 45.4827 50.3772 45.0922 50.5663 44.6585C50.7555 44.2249 50.8543 43.7572 50.8567 43.2841V41.4368C50.8457 40.7609 50.6444 40.1018 50.2758 39.5352C49.9073 38.9686 49.3865 38.5173 48.7731 38.2332C49.1255 37.6843 49.313 37.0458 49.3134 36.3935V34.5461C49.2747 33.5543 48.8451 32.618 48.1184 31.9418C47.3918 31.2655 46.4271 30.9042 45.435 30.9368H45.1911V24.8676C47.4003 23.6625 49.2451 21.8859 50.5324 19.7237C51.8198 17.5614 52.5025 15.093 52.5091 12.5765C52.5157 10.06 51.846 7.58801 50.5699 5.41905C49.2939 3.25008 47.4585 1.46387 45.2556 0.24724C45.0892 0.155188 44.9016 0.108125 44.7115 0.110696C44.5213 0.113266 44.3351 0.165382 44.1712 0.261899C44.0073 0.358416 43.8714 0.495999 43.777 0.661068C43.6825 0.826137 43.6327 1.01299 43.6325 1.20318V11.8924L38.4536 14.6749L33.2747 11.8924V1.20318C33.2745 1.01299 33.2247 0.826137 33.1302 0.661068C33.0358 0.495999 32.8999 0.358416 32.736 0.261899C32.5721 0.165382 32.3859 0.113266 32.1957 0.110696C32.0055 0.108125 31.818 0.155188 31.6516 0.24724C29.4481 1.46328 27.612 3.24924 26.3354 5.41821C25.0588 7.58719 24.3887 10.0594 24.3952 12.5762C24.4016 15.0929 25.0845 17.5617 26.3722 19.724C27.66 21.8864 29.5053 23.6629 31.715 24.8676V25.4144H25.9947C24.7178 25.4148 23.4597 25.7214 22.3258 26.3085C21.1919 26.8956 20.2154 27.7461 19.4781 28.7886L16.7656 32.6288H12.7625V31.0265C12.7625 30.7364 12.6473 30.4582 12.4421 30.2531C12.237 30.0479 11.9588 29.9327 11.6688 29.9327H1.58328C1.2932 29.9327 1.015 30.0479 0.809885 30.2531C0.604767 30.4582 0.489532 30.7364 0.489532 31.0265V57.2404C0.489532 57.5304 0.604767 57.8086 0.809885 58.0138C1.015 58.2189 1.2932 58.3341 1.58328 58.3341ZM10.575 56.1466H2.67703V51.2685H10.575V56.1466ZM43.0156 62.8611C43.0156 64.0685 42.536 65.2263 41.6823 66.08C40.8286 66.9337 39.6708 67.4133 38.4634 67.4133C37.2561 67.4133 36.0983 66.9337 35.2446 66.08C34.3909 65.2263 33.9113 64.0685 33.9113 62.8611V60.6736H35.9533C35.7884 61.1057 35.7309 61.5714 35.786 62.0307C35.841 62.4899 36.0068 62.9288 36.2691 63.3097C36.5315 63.6906 36.8824 64.0021 37.2918 64.2172C37.7012 64.4324 38.1568 64.5448 38.6193 64.5448C39.0818 64.5448 39.5374 64.4324 39.9468 64.2172C40.3562 64.0021 40.7071 63.6906 40.9695 63.3097C41.2318 62.9288 41.3976 62.4899 41.4526 62.0307C41.5076 61.5714 41.4502 61.1057 41.2853 60.6736H43.0156V62.8611ZM39.0934 62.1655C38.9998 62.2591 38.8805 62.3227 38.7507 62.3485C38.6209 62.3743 38.4863 62.361 38.3641 62.3103C38.2418 62.2596 38.1373 62.1738 38.0638 62.0637C37.9903 61.9537 37.951 61.8243 37.951 61.6919C37.951 61.5596 37.9903 61.4302 38.0638 61.3201C38.1373 61.2101 38.2418 61.1243 38.3641 61.0736C38.4863 61.0229 38.6209 61.0096 38.7507 61.0354C38.8805 61.0611 38.9998 61.1248 39.0934 61.2183C39.2178 61.3449 39.2871 61.5154 39.2862 61.6928C39.2854 61.8702 39.2146 62.0401 39.0891 62.1655H39.0934ZM33.9025 28.5404V25.2952H43.0058V30.9313H33.9025V28.5404ZM26.5831 12.5454C26.5847 10.7555 26.9905 8.98917 27.7705 7.37819C28.5504 5.76722 29.6842 4.35326 31.0872 3.24193V12.5454C31.0872 12.7431 31.1408 12.9371 31.2423 13.1068C31.3438 13.2764 31.4894 13.4154 31.6636 13.509L37.9352 16.881C38.0944 16.9666 38.2723 17.0114 38.4531 17.0114C38.6338 17.0114 38.8117 16.9666 38.9709 16.881L45.2447 13.509C45.4187 13.4153 45.5641 13.2762 45.6654 13.1066C45.7667 12.9369 45.8201 12.743 45.82 12.5454V3.24302C47.3818 4.47617 48.6076 6.08308 49.3841 7.91525C50.1606 9.74743 50.4628 11.7458 50.2628 13.7256C50.0628 15.7055 49.3669 17.603 48.2396 19.2428C47.1123 20.8826 45.5899 22.2119 43.813 23.1077H33.0942C31.1331 22.128 29.4845 20.6202 28.3341 18.754C27.1837 16.8879 26.5773 14.7376 26.5831 12.5454ZM17.3322 34.8163C17.5073 34.8163 17.6799 34.7743 17.8354 34.6938C17.9909 34.6133 18.1247 34.4967 18.2258 34.3536L21.2642 30.0541C21.7995 29.2975 22.5084 28.6802 23.3315 28.2541C24.1546 27.828 25.0679 27.6055 25.9947 27.6052H31.715V30.9313H27.1727V33.1188H45.4383C45.8501 33.0874 46.2579 33.2187 46.574 33.4845C46.8902 33.7504 47.0895 34.1295 47.1292 34.5407V36.388C47.0911 36.8003 46.8925 37.1812 46.5761 37.4484C46.2598 37.7156 45.8512 37.8478 45.4383 37.8165H38.4536V40.004H46.9848C47.3966 39.9726 47.8042 40.1039 48.1202 40.3698C48.4361 40.6356 48.6352 41.0148 48.6747 41.4258V43.2732C48.6368 43.6854 48.4384 44.0662 48.1223 44.3335C47.8061 44.6007 47.3976 44.7329 46.9848 44.7016H38.4536V46.8891H46.9848C47.3976 46.8578 47.8061 46.99 48.1223 47.2573C48.4384 47.5245 48.6368 47.9053 48.6747 48.3176V50.1638C48.6368 50.576 48.4384 50.9568 48.1223 51.2241C47.8061 51.4913 47.3976 51.6235 46.9848 51.5922H38.4536V53.7797H45.4383C45.8501 53.7483 46.2579 53.8797 46.574 54.1455C46.8902 54.4113 47.0895 54.7905 47.1292 55.2016V57.049C47.0898 57.4602 46.8905 57.8395 46.5743 58.1054C46.2581 58.3713 45.8502 58.5025 45.4383 58.4708H25.5944C24.1673 58.4718 22.7902 57.9451 21.728 56.9921L18.0617 53.7108C17.8612 53.5312 17.6014 53.4319 17.3322 53.4319H12.7625V34.8163H17.3322ZM10.575 32.1202V49.081H2.67703V32.1202H10.575Z" fill="#001645"/>
<path d="M6.62655 52.4651C6.37773 52.4649 6.13444 52.5385 5.92745 52.6765C5.72046 52.8146 5.55907 53.011 5.4637 53.2408C5.36834 53.4706 5.34327 53.7236 5.39168 53.9676C5.44009 54.2117 5.5598 54.4359 5.73566 54.6119C5.91153 54.7879 6.13565 54.9078 6.37967 54.9565C6.62369 55.0051 6.87665 54.9802 7.10655 54.8851C7.33645 54.7899 7.53296 54.6287 7.67121 54.4218C7.80947 54.215 7.88327 53.9717 7.88327 53.7229C7.88327 53.3895 7.7509 53.0697 7.51525 52.8339C7.2796 52.598 6.95995 52.4654 6.62655 52.4651Z" fill="#001645"/>
</svg>
