<svg width="54" height="65" viewBox="0 0 54 65" fill="none" xmlns="http://www.w3.org/2000/svg">
<path d="M44.9408 46.4828C42.6878 46.4828 40.8549 48.3156 40.8549 50.5686C40.8549 52.8216 42.6878 54.6545 44.9408 54.6545C47.1938 54.6545 49.0266 52.8216 49.0266 50.5686C49.0266 48.3156 47.1938 46.4828 44.9408 46.4828ZM44.9408 52.6034C43.8189 52.6034 42.9059 51.6907 42.9059 50.5685C42.9059 49.4466 43.8187 48.5336 44.9408 48.5336C46.0627 48.5336 46.9757 49.4463 46.9757 50.5685C46.9757 51.6907 46.0628 52.6034 44.9408 52.6034Z" fill="#001645"/>
<path d="M47.562 42.1475C46.1587 40.7672 44.7408 40.1729 44.6832 40.1491L31.5454 34.6537V31.9164C33.6359 30.3015 35.0816 27.8932 35.4295 25.1461C39.3401 24.9062 41.1781 20.3783 38.6854 17.5442V13.4801C38.6852 6.04721 32.638 0 25.205 0C17.7722 0 11.7248 6.04721 11.7248 13.4801V17.6646C9.22465 20.5041 11.1246 24.9107 14.9804 25.1464C15.3324 27.9568 16.8273 30.4482 19.0858 32.0767V34.6598L5.96814 40.1469C5.73422 40.243 0.240585 42.5753 0.240585 48.9937V61.8633C0.240585 63.3335 1.43674 64.5295 2.90674 64.5295H38.1729V68.9743C38.1728 69.1871 38.239 69.3947 38.3623 69.5681C38.4856 69.7416 38.6599 69.8723 38.8609 69.942C39.1856 70.0551 39.5496 69.9908 39.8096 69.7975L44.9406 65.9866C50.4906 70.1086 50.2225 69.9997 50.6832 69.9997C51.2454 69.9997 51.7085 69.5442 51.7085 68.9743V64.6652C51.7085 64.0989 51.2495 63.6398 50.6831 63.6398C50.1167 63.6398 49.6577 64.0989 49.6577 64.6652V66.9353L45.966 64.1936V59.3257C47.2792 59.1717 48.5409 58.7243 49.6577 58.0166V59.8797C49.6578 60.1516 49.7658 60.4125 49.9581 60.6048C50.1504 60.7971 50.4113 60.9052 50.6832 60.9052C50.9552 60.9052 51.216 60.7972 51.4083 60.6049C51.6006 60.4126 51.7086 60.1518 51.7086 59.8798V56.2144C52.9878 54.6835 53.7593 52.7148 53.7593 50.5684C53.7594 46.6181 51.1486 43.2663 47.562 42.1475ZM34.255 38.0103L43.4832 41.8704C42.5007 42.0356 41.5534 42.3668 40.682 42.8498L33.4389 39.6043L34.255 38.0103ZM32.3569 37.2172L29.1507 43.4794L26.7921 41.6166L31.0054 36.6531L32.3569 37.2172ZM25.3379 43.0819L26.8865 44.3048C26.8867 44.5967 26.956 45.1399 26.3767 45.3584C26.2901 45.3908 26.1985 45.4075 26.106 45.4077C24.4521 45.4077 24.4369 45.426 24.2587 45.3597C23.6959 45.1648 23.7446 44.5951 23.7446 44.3404L25.3379 43.0819ZM25.321 40.1807L21.1368 35.2752V33.2207C23.8173 34.3202 26.8996 34.3212 29.4943 33.1488V35.264L25.321 40.1807ZM35.5132 23.0798V18.0471C38.509 18.4562 38.5022 22.6745 35.5132 23.0798ZM14.8978 23.0794C12.7748 22.7866 11.7903 20.2087 13.5685 18.7279C13.9531 18.4115 14.4201 18.1896 14.8978 18.0923V23.0794ZM15.5066 15.0403C15.2393 15.2843 15.0274 15.6339 14.9432 16.0105C14.5448 16.0512 14.1529 16.1402 13.776 16.2755V13.4801C13.776 7.17801 18.9031 2.05092 25.2052 2.05092C31.5073 2.05092 36.6344 7.17801 36.6344 13.4801V16.2036C36.2707 16.0862 35.8945 16.0118 35.5135 15.982C35.5135 14.8881 35.5881 15.1644 32.0902 11.4045C31.4797 10.7484 30.4681 10.6057 29.6936 11.1124C29.2209 11.4211 29.0147 11.5346 28.878 11.6149C25.5608 13.5659 21.7269 14.5984 18.2002 14.5987C16.9062 14.5987 16.2529 14.3549 15.5066 15.0403ZM16.952 23.9966C16.9472 23.7274 16.9487 24.949 16.9487 16.6109C21.7369 16.9088 26.772 15.4317 30.6899 12.9104C32.3051 14.6454 33.2025 15.5777 33.4624 15.9035V23.8619C33.4624 23.9107 33.4595 23.9587 33.4587 24.0071L33.4572 24.0603L33.4574 24.0639C33.3489 28.4704 29.669 32.2234 24.8095 31.9711C20.2722 31.7259 17.0839 28.2346 16.952 23.9966ZM19.6224 36.6598L23.8641 41.6326L21.5255 43.4794L18.317 37.2124L19.6224 36.6598ZM16.4159 37.9997L17.1877 39.5073L7.67275 43.7712C7.07293 43.3041 6.41328 42.9195 5.71139 42.6275C6.52678 42.0798 5.9192 42.3905 16.4159 37.9997ZM8.90719 62.4786H2.90687C2.74376 62.4784 2.58738 62.4135 2.47204 62.2982C2.3567 62.1828 2.29182 62.0264 2.29164 61.8633V48.9937C2.29164 47.0966 2.93928 45.4228 3.97314 44.208C4.92676 44.44 5.7941 44.8875 6.52719 45.4908C6.63696 45.6957 6.81347 45.8569 7.02744 45.9478C8.1916 47.1274 8.90732 48.7428 8.90732 50.4856L8.90719 62.4786ZM21.0653 62.4784H10.9581V50.4855C10.9576 48.6216 10.3451 46.8095 9.21453 45.3276L18.1237 41.3353C18.1453 41.3774 19.8779 44.7638 19.9017 44.8045C20.2622 45.4188 21.0362 45.8608 21.8778 45.6222C21.9996 45.9447 22.1791 46.2422 22.4078 46.5001L21.0653 62.4784ZM38.1732 62.4786H29.571L29.0706 56.5435C29.0478 56.2725 28.9182 56.0217 28.7104 55.8462C28.5027 55.6707 28.2337 55.585 27.9627 55.6078C27.6917 55.6307 27.4409 55.7602 27.2654 55.968C27.09 56.1758 27.0042 56.4447 27.0271 56.7157L27.513 62.4786H23.1236L24.3858 47.4553C24.4814 47.46 26.1238 47.4614 26.2463 47.4553L26.6236 51.9303C26.6712 52.4945 27.168 52.913 27.7316 52.8659C28.0026 52.843 28.2534 52.7134 28.4289 52.5056C28.6044 52.2979 28.6901 52.0289 28.6673 51.7579L28.224 46.5004C28.455 46.2396 28.6359 45.9384 28.7575 45.612C29.5484 45.8239 30.3787 45.5237 30.9189 44.5266L32.5032 41.4323L38.7954 44.2519C35.4498 47.5109 35.2529 52.7287 38.1733 56.2208V62.4786H38.1732ZM43.9154 64.1937L40.2237 66.9354V58.0167C41.3413 58.723 42.6026 59.1706 43.9154 59.3269V64.1937ZM48.949 56.0174C44.3817 59.3893 38.1735 55.9296 38.1735 50.5686C38.1735 46.1342 42.3996 42.8612 46.7261 44.0415C49.594 44.8268 51.7086 47.4545 51.7086 50.5686C51.7088 51.6297 51.459 52.6759 50.9796 53.6226C50.5001 54.5692 49.8045 55.3896 48.949 56.0174Z" fill="#001645"/>
</svg>
