<svg width="1222" height="748" viewBox="0 0 1222 748" fill="none" xmlns="http://www.w3.org/2000/svg">
<rect x="549" y="452" width="69" height="281" fill="#2F3992"/>
<rect x="668" y="452" width="68" height="231" fill="#4967AF"/>
<rect x="783" y="452" width="68" height="183" fill="#7088C6"/>
<path d="M2.52441 465.26H76.4844V484.703H51.6699V544H27.3389V484.703H2.52441V465.26ZM87.8711 544V465.26H128.423C135.942 465.26 141.689 465.904 145.664 467.193C149.639 468.482 152.843 470.882 155.278 474.391C157.713 477.864 158.931 482.107 158.931 487.12C158.931 491.489 158 495.266 156.138 498.453C154.276 501.604 151.715 504.164 148.457 506.134C146.38 507.387 143.534 508.425 139.917 509.249C142.817 510.216 144.93 511.183 146.255 512.149C147.15 512.794 148.439 514.173 150.122 516.285C151.841 518.398 152.987 520.027 153.56 521.173L165.322 544H137.822L124.824 519.938C123.177 516.822 121.709 514.799 120.42 513.868C118.665 512.651 116.678 512.042 114.458 512.042H112.31V544H87.8711ZM112.31 497.164H122.568C123.678 497.164 125.827 496.806 129.014 496.09C130.625 495.768 131.932 494.944 132.935 493.619C133.973 492.294 134.492 490.772 134.492 489.054C134.492 486.511 133.687 484.56 132.075 483.199C130.464 481.839 127.438 481.158 122.998 481.158H112.31V497.164ZM221.611 531.002H193.896L190.083 544H165.215L194.81 465.26H221.343L250.938 544H225.479L221.611 531.002ZM216.509 513.976L207.808 485.67L199.16 513.976H216.509ZM259.102 465.26H295.249C302.375 465.26 308.122 466.227 312.49 468.16C316.895 470.094 320.529 472.869 323.394 476.485C326.258 480.102 328.335 484.309 329.624 489.107C330.913 493.906 331.558 498.99 331.558 504.361C331.558 512.776 330.591 519.311 328.657 523.966C326.759 528.585 324.11 532.47 320.708 535.621C317.306 538.736 313.654 540.813 309.751 541.852C304.416 543.284 299.582 544 295.249 544H259.102V465.26ZM283.433 483.092V526.114H289.395C294.479 526.114 298.096 525.559 300.244 524.449C302.393 523.303 304.076 521.334 305.293 518.541C306.51 515.712 307.119 511.147 307.119 504.845C307.119 496.502 305.758 490.79 303.037 487.711C300.316 484.632 295.804 483.092 289.502 483.092H283.433ZM344.341 465.26H409.546V482.071H368.726V494.586H406.592V510.646H368.726V526.168H410.728V544H344.341V465.26Z" fill="#303030"/>
<path d="M0 342.783C28.9714 366.383 63.0697 378.184 102.295 378.184C139.648 369.131 150.715 347.131 155.215 331.152C156.215 322.131 156.883 316.5 155.215 308.652C154.014 303 144.514 292.055 137.715 285.654C129.215 277.652 115.014 268 91.3086 250.254C67.5137 236 40.724 210.133 27.2148 193.369C13.7057 176.605 0 147.776 0 125.152C0 92.6002 10.9987 76.3484 36.7148 57.6309C62.431 38.9135 98.0137 35 137.715 34.1309C160.008 33.6429 201.715 35.1309 222.9 44.1524L230.715 107.152C207.44 91.039 170.573 86.4355 135.742 86.4355C113.444 86.4355 104.98 91.0482 91.3086 100C79.7363 111.289 80.5137 121 80.5137 129.5C80.5137 138 81.7871 156.5 89.5137 167.631C95.6702 176.5 107.014 191.131 139.648 208.262C177.246 225.84 203.206 243.499 217.529 261.24C231.852 278.818 239.014 299.082 239.014 322.031C239.014 356.211 226.644 382.334 201.904 400.4C177.165 418.467 142.904 427.5 99.1211 427.5C83.0078 427.5 65.1042 425.547 45.4102 421.641C25.7161 417.734 10.5794 412.526 0 406.016V342.783Z" fill="#303A93"/>
<path d="M409.09 431.324C357.332 431.324 317.618 418.954 289.949 394.215C262.443 369.475 248.689 334.238 248.689 288.502C248.689 243.743 261.548 208.017 287.264 181.324C312.98 154.632 348.95 141.285 395.174 141.285C437.166 141.285 468.742 152.597 489.9 175.221C511.059 197.844 521.639 230.234 521.639 272.389V303.15H334.383C335.197 315.846 337.882 326.507 342.439 335.133C346.997 343.596 353.019 350.351 360.506 355.397C367.83 360.442 376.375 364.104 386.141 366.383C395.906 368.499 406.567 369.557 418.123 369.557C428.051 369.557 437.817 368.499 447.42 366.383C457.023 364.104 465.812 361.175 473.787 357.594C480.786 354.501 487.215 351.165 493.074 347.584C499.096 344.003 503.979 340.829 507.723 338.063H516.756V408.619C509.757 411.386 503.328 413.99 497.469 416.432C491.772 418.71 483.878 421.07 473.787 423.512C464.51 425.953 454.907 427.825 444.979 429.127C435.213 430.592 423.25 431.324 409.09 431.324ZM437.41 251.637C436.922 233.57 432.69 219.817 424.715 210.377C416.902 200.937 404.858 196.217 388.582 196.217C371.98 196.217 358.96 201.181 349.52 211.109C340.242 221.038 335.115 234.547 334.139 251.637H437.41Z" fill="#303A93"/>
<path d="M548.758 424V66.0899H617.361V424H548.758Z" fill="#303A93"/>
<path d="M667.918 129.566V66.0899H736.521V129.566H667.918ZM667.918 424V164.723H736.521V424H667.918Z" fill="#303A93"/>
<path d="M781.951 164.723H845.184V200.123C867.807 172.617 894.744 158.863 925.994 158.863C942.596 158.863 957 162.281 969.207 169.117C981.414 175.953 991.424 186.288 999.236 200.123C1010.63 186.288 1022.92 175.953 1036.1 169.117C1049.29 162.281 1063.36 158.863 1078.34 158.863C1097.38 158.863 1113.49 162.77 1126.68 170.582C1139.86 178.232 1149.71 189.544 1156.22 204.518C1160.94 215.585 1163.3 233.489 1163.3 258.229V424H1094.7V275.807C1094.7 250.091 1092.34 233.489 1087.62 226.002C1081.27 216.236 1071.5 211.354 1058.32 211.354C1048.72 211.354 1039.68 214.283 1031.22 220.143C1022.76 226.002 1016.65 234.628 1012.91 246.022C1009.16 257.252 1007.29 275.074 1007.29 299.488V424H938.689V281.91C938.689 256.682 937.469 240.406 935.027 233.082C932.586 225.758 928.761 220.305 923.553 216.725C918.507 213.144 911.59 211.354 902.801 211.354C892.221 211.354 882.7 214.202 874.236 219.898C865.773 225.595 859.669 233.815 855.926 244.557C852.345 255.299 850.555 273.121 850.555 298.023V424H781.951V164.723Z" fill="#303A93"/>
</svg>
