<svg width="70" height="68" viewBox="0 0 70 68" fill="none" xmlns="http://www.w3.org/2000/svg">
<path d="M62.1693 20.3824L63.6007 18.7172L64.9957 19.9166C65.0985 20.005 65.2177 20.0723 65.3465 20.1146C65.4752 20.1569 65.6111 20.1734 65.7463 20.1632C65.8814 20.153 66.0133 20.1163 66.1343 20.0551C66.2552 19.994 66.363 19.9096 66.4513 19.8068L68.6675 17.2291C68.846 17.0215 68.9346 16.7516 68.914 16.4786C68.8934 16.2056 68.7653 15.952 68.5577 15.7736L60.9356 9.22071C60.833 9.13213 60.7138 9.06473 60.585 9.0224C60.4561 8.98008 60.3202 8.96366 60.185 8.97409C59.912 8.99467 59.6584 9.12283 59.48 9.3304L57.2638 11.9081C57.0853 12.1157 56.9967 12.3857 57.0173 12.6586C57.0379 12.9316 57.166 13.1852 57.3736 13.3636L58.7686 14.563L57.2276 16.3555C54.071 14.3393 50.4789 12.9473 46.6263 12.3562V9.23736H50.1812C51.8404 9.23736 53.1901 7.88754 53.1901 6.22833V3.82678C53.1901 2.16757 51.8403 0.817749 50.1812 0.817749H34.6732C33.014 0.817749 31.6642 2.16757 31.6642 3.82678V6.22833C31.6642 7.88754 33.014 9.23736 34.6732 9.23736H38.2282V12.3562C34.2997 12.959 30.6425 14.3953 27.4412 16.4762L25.7964 14.563L27.1915 13.3636C27.399 13.1851 27.5271 12.9315 27.5476 12.6585C27.5682 12.3856 27.4796 12.1156 27.3012 11.908L25.085 9.33026C24.9966 9.22747 24.8889 9.1431 24.7679 9.08196C24.6469 9.02082 24.5151 8.98411 24.3799 8.97392C24.2447 8.96374 24.1089 8.98028 23.9801 9.0226C23.8513 9.06492 23.7321 9.13219 23.6294 9.22057L16.0074 15.7734C15.8 15.952 15.6719 16.2056 15.6513 16.4786C15.6307 16.7515 15.7194 17.0215 15.8977 17.2291L18.1139 19.8068C18.2108 19.9197 18.3309 20.0102 18.4661 20.0722C18.6013 20.1342 18.7483 20.1662 18.897 20.166C19.1438 20.1663 19.3825 20.0777 19.5694 19.9165L20.9644 18.7172L22.5315 20.5399C21.1717 21.9581 19.9663 23.5167 18.9357 25.1895C18.9004 25.1859 18.865 25.1841 18.8296 25.1841H12.3112C12.0375 25.1841 11.7749 25.2928 11.5814 25.4864C11.3878 25.68 11.279 25.9425 11.279 26.2163C11.279 26.49 11.3878 26.7526 11.5814 26.9461C11.7749 27.1397 12.0375 27.2485 12.3112 27.2485H17.7858C17.2394 28.3332 16.7656 29.453 16.3677 30.6005H5.93865C5.6649 30.6005 5.40236 30.7092 5.20878 30.9028C5.01521 31.0964 4.90646 31.3589 4.90646 31.6326C4.90646 31.9064 5.01521 32.1689 5.20878 32.3625C5.40236 32.5561 5.6649 32.6648 5.93865 32.6648H15.7411C15.3644 34.1138 15.1071 35.5912 14.9717 37.0822H1.03219C0.758434 37.0822 0.495893 37.1909 0.30232 37.3845C0.108748 37.5781 0 37.8406 0 38.1144C0 38.3881 0.108748 38.6507 0.30232 38.8442C0.495893 39.0378 0.758434 39.1465 1.03219 39.1465H14.8606C14.858 39.3008 14.8547 39.4548 14.8547 39.6098C14.8547 40.9523 14.9531 42.2722 15.1394 43.5639H4.97528C4.70152 43.5639 4.43898 43.6726 4.24541 43.8662C4.05184 44.0598 3.94309 44.3223 3.94309 44.5961C3.94309 44.8698 4.05184 45.1324 4.24541 45.3259C4.43898 45.5195 4.70152 45.6283 4.97528 45.6283H15.5182C15.772 46.7653 16.0983 47.8848 16.4952 48.9801H11.3479C11.0741 48.9801 10.8116 49.0889 10.618 49.2824C10.4244 49.476 10.3157 49.7386 10.3157 50.0123C10.3157 50.2861 10.4244 50.5486 10.618 50.7422C10.8116 50.9357 11.0741 51.0445 11.3479 51.0445H17.34C21.6931 60.557 31.3006 67.1824 42.4274 67.1824C48.2389 67.1824 53.7972 65.3955 58.5014 62.0149C58.7212 61.8541 58.8686 61.6131 58.9115 61.3442C58.9544 61.0753 58.8893 60.8004 58.7304 60.5792C58.5714 60.3581 58.3316 60.2088 58.0631 60.1637C57.7945 60.1186 57.5191 60.1815 57.2967 60.3386C52.9457 63.4654 47.8039 65.1182 42.4274 65.1182C28.362 65.1182 16.9191 53.6752 16.9191 39.6099C16.9191 25.5445 28.362 14.1016 42.4274 14.1016C49.2361 14.1016 55.4303 16.7832 60.0095 21.1456C60.0189 21.1555 60.0294 21.1646 60.0391 21.1743C64.9021 25.8218 67.9356 32.3682 67.9356 39.6099C67.9356 46.4317 65.2767 52.8431 60.4486 57.6627C60.3526 57.7585 60.2765 57.8722 60.2245 57.9974C60.1725 58.1226 60.1457 58.2568 60.1456 58.3924C60.1455 58.5279 60.1721 58.6622 60.2238 58.7875C60.2756 58.9127 60.3515 59.0266 60.4473 59.1225C60.6407 59.3162 60.9032 59.4252 61.1769 59.4254C61.4506 59.4257 61.7132 59.3172 61.907 59.1238C67.1258 53.914 70 46.9839 70 39.6098C70 32.1384 67.0118 25.3531 62.1693 20.3824ZM60.3726 11.4589L66.4293 16.6659L65.559 17.6782L59.5023 12.4711L60.3726 11.4589ZM60.3342 15.9089L62.0354 17.3714L60.6729 18.9563C60.1128 18.4608 59.5334 17.9866 58.9341 17.5372L60.3342 15.9089ZM37.8625 7.17299V2.88212H39.5294V7.17299H37.8625ZM41.5938 2.88212H43.2607V7.17299H41.5938V2.88212ZM45.3251 7.17299V2.88212H46.9921V7.17299H45.3251ZM51.126 3.82678V6.22833C51.1257 6.47877 51.0261 6.71888 50.8491 6.89598C50.672 7.07307 50.4319 7.1727 50.1815 7.17299H49.0567V2.88212H50.1815C50.4319 2.88241 50.672 2.98204 50.8491 3.15914C51.0261 3.33623 51.1257 3.57634 51.126 3.82678ZM33.7287 6.22833V3.82678C33.729 3.57633 33.8286 3.33622 34.0057 3.15913C34.1828 2.98203 34.4229 2.88241 34.6733 2.88212H35.7982V7.17299H34.6733C34.4229 7.1727 34.1828 7.07308 34.0057 6.89598C33.8286 6.71889 33.729 6.47878 33.7287 6.22833ZM19.0063 17.6783L18.1359 16.6661L24.1925 11.459L25.0629 12.4713L23.668 13.6705L23.6678 13.6707L20.4012 16.479L20.401 16.4793L19.0063 17.6783ZM22.5607 17.3448L24.2309 15.9089L25.746 17.6712C25.1508 18.1246 24.5742 18.602 24.0176 19.102L22.5297 17.3715L22.5607 17.3448ZM40.2926 12.119V9.23736H44.5621V12.1191C43.141 12.0097 41.7137 12.0096 40.2926 12.119Z" fill="#001645"/>
<path d="M33.7826 20.8046C33.6558 20.562 33.4378 20.3797 33.1766 20.2979C32.9154 20.216 32.6324 20.2412 32.3897 20.3679C26.1143 23.6481 21.8223 29.793 20.9085 36.8056C19.3623 48.671 27.7577 59.5824 39.6232 61.1284C40.558 61.2506 41.4998 61.3119 42.4425 61.3119C53.1703 61.3109 62.5233 53.3313 63.946 42.4138C64.695 36.6659 63.1609 30.9704 59.626 26.3764C56.0912 21.7824 50.9791 18.8399 45.2311 18.0908C42.4269 17.7253 39.6302 17.9016 36.9181 18.6142C36.6569 18.6869 36.4347 18.8595 36.2996 19.0947C36.1645 19.3299 36.1275 19.6088 36.1964 19.8711C36.2653 20.1334 36.4347 20.358 36.6679 20.4965C36.9012 20.6349 37.1795 20.676 37.4428 20.6108C38.7356 20.2711 40.06 20.0655 41.3949 19.9973V22.7092C41.3949 23.2793 41.857 23.7414 42.4271 23.7414C42.9973 23.7414 43.4593 23.2793 43.4593 22.7092V19.9998C43.9604 20.0269 44.4622 20.0723 44.9645 20.1377C48.9843 20.6615 52.6598 22.3719 55.5991 25.0406L53.7297 26.9098C53.6338 27.0056 53.5578 27.1194 53.5059 27.2446C53.454 27.3698 53.4273 27.504 53.4272 27.6396C53.4272 27.7751 53.4539 27.9094 53.5058 28.0346C53.5577 28.1598 53.6337 28.2736 53.7296 28.3694C53.8253 28.4655 53.9391 28.5416 54.0644 28.5935C54.1896 28.6454 54.3239 28.672 54.4595 28.6718C54.5951 28.672 54.7294 28.6454 54.8546 28.5935C54.9799 28.5416 55.0936 28.4655 55.1894 28.3694L57.0534 26.5055C57.3792 26.8704 57.6917 27.2472 57.99 27.6349C60.4581 30.8426 61.847 34.6438 62.0418 38.6021H59.4815C58.9113 38.6021 58.4493 39.0643 58.4493 39.6343C58.4493 40.2044 58.9113 40.6665 59.4815 40.6665H62.0362C62.0088 41.1614 61.9631 41.6552 61.899 42.1467C61.3672 46.2271 59.6107 49.8532 57.049 52.7051L55.2806 50.9368C55.0868 50.7446 54.8247 50.637 54.5517 50.6376C54.2787 50.6382 54.0171 50.7469 53.8241 50.9399C53.6311 51.1329 53.5223 51.3945 53.5217 51.6675C53.5211 51.9404 53.6287 52.2025 53.8208 52.3964L55.5911 54.1667C52.34 57.1022 48.1302 58.9445 43.5883 59.2117V56.6884C43.5883 56.1183 43.1263 55.6562 42.5561 55.6562C41.9859 55.6562 41.5239 56.1183 41.5239 56.6884V59.2244C40.9775 59.1993 40.4324 59.1514 39.89 59.081C35.8544 58.5551 32.2627 56.8318 29.4253 54.3157L31.2535 52.4875C31.6566 52.0844 31.6566 51.431 31.2535 51.0279C30.8504 50.6248 30.1968 50.6248 29.7939 51.0279L27.9552 52.8664C24.9756 49.6085 23.1014 45.3709 22.8263 40.7952H25.5019C25.7756 40.7952 26.0382 40.6864 26.2318 40.4929C26.4253 40.2993 26.5341 40.0368 26.5341 39.763C26.5341 39.4892 26.4253 39.2267 26.2318 39.0331C26.0382 38.8396 25.7756 38.7308 25.5019 38.7308H22.8112C22.8362 38.1809 22.8832 37.6276 22.9556 37.072C23.4723 33.1069 25.1829 29.4482 27.779 26.5368L29.7027 28.4604C29.9042 28.662 30.1685 28.7628 30.4326 28.7628C30.6967 28.7628 30.9609 28.662 31.1624 28.4604C31.3559 28.2669 31.4647 28.0043 31.4647 27.7306C31.4647 27.4569 31.3559 27.1943 31.1624 27.0008L29.2334 25.0718C30.4758 23.9417 31.8579 22.9756 33.346 22.1971C33.4661 22.1344 33.5727 22.0486 33.6596 21.9447C33.7466 21.8407 33.8122 21.7207 33.8528 21.5913C33.8934 21.462 33.908 21.326 33.896 21.191C33.884 21.056 33.8454 20.9247 33.7826 20.8046Z" fill="#001645"/>
<path d="M42.4274 30.1415C42.1537 30.1415 41.8911 30.2502 41.6975 30.4438C41.504 30.6374 41.3952 30.8999 41.3952 31.1737V37.3049C40.5151 37.7007 39.8998 38.5838 39.8998 39.6098C39.8998 41.0035 41.0337 42.1374 42.4274 42.1374C42.8095 42.1374 43.1706 42.0497 43.4957 41.8973L50.382 48.7836C50.4777 48.8796 50.5915 48.9557 50.7168 49.0076C50.8421 49.0595 50.9764 49.0861 51.1119 49.086C51.3161 49.086 51.5157 49.0254 51.6854 48.912C51.8552 48.7986 51.9875 48.6374 52.0656 48.4488C52.1437 48.2602 52.1642 48.0527 52.1244 47.8525C52.0846 47.6522 51.9863 47.4683 51.8419 47.3239L44.8489 40.3308C44.9172 40.1021 44.955 39.8604 44.955 39.6098C44.955 38.5839 44.3397 37.7007 43.4597 37.305V31.1738C43.4597 30.9 43.3509 30.6375 43.1573 30.4439C42.9637 30.2503 42.7012 30.1415 42.4274 30.1415ZM41.9642 39.6097C41.9643 39.4868 42.0132 39.3691 42.1 39.2823C42.1868 39.1954 42.3046 39.1466 42.4274 39.1464C42.6827 39.1464 42.8905 39.3542 42.8905 39.6097C42.8905 39.8651 42.6827 40.0729 42.4274 40.0729C42.3046 40.0728 42.1868 40.0239 42.1 39.9371C42.0132 39.8502 41.9643 39.7325 41.9642 39.6097Z" fill="#001645"/>
</svg>
