<svg width="30" height="31" viewBox="0 0 30 31" fill="none" xmlns="http://www.w3.org/2000/svg">
<path d="M1.97618 29.9047L7.61594 28.17L15.0986 29.9984V30.2176C15.0987 30.2176 15.0988 30.2176 15.0988 30.2176C23.195 30.2175 29.7807 23.6316 29.7807 15.5355C29.7807 7.43923 23.1949 0.853374 15.0986 0.853374C7.00241 0.853374 0.416545 7.43923 0.416545 15.5355C0.416545 18.2643 1.16585 20.9149 2.58838 23.224C2.30452 24.221 1.91786 25.6171 1.59722 26.7819C1.4318 27.3828 1.28389 27.9224 1.17665 28.3142L1.04916 28.7803L1.01373 28.91L1.00406 28.9453L1.00138 28.9551L1.00049 28.9583L1.00008 28.9598C0.963334 29.0939 0.96341 29.2353 1.00029 29.3694C1.03718 29.5034 1.10951 29.625 1.20967 29.7213L1.20969 29.7214C1.41329 29.9172 1.70738 29.9871 1.97595 29.9048L1.97618 29.9047ZM15.0986 28.6668H15.0984C12.635 28.6692 10.2208 27.9768 8.13312 26.6692L8.13305 26.6692C8.03869 26.6101 7.93271 26.5721 7.82233 26.5576C7.71196 26.5432 7.59978 26.5527 7.49341 26.5854C7.49339 26.5855 7.49337 26.5855 7.49335 26.5855L2.86845 28.0091C3.29692 26.4432 3.73229 24.8791 4.17458 23.3171C4.23648 23.1014 4.20142 22.8693 4.08003 22.6814L4.07971 22.6809C2.69776 20.5544 1.96385 18.0719 1.96735 15.5358V15.5355C1.96735 8.2954 7.85858 2.40418 15.0986 2.40418C22.3387 2.40418 28.2299 8.2954 28.2299 15.5355C28.2299 22.7755 22.3387 28.6668 15.0986 28.6668Z" fill="url(#paint0_linear_1965_461)" stroke="url(#paint1_linear_1965_461)" stroke-width="0.438272"/>
<path d="M24.0254 18.5909C23.0307 18.0287 22.1836 17.4648 21.5655 17.0534C21.0935 16.7397 20.7524 16.5131 20.5024 16.3853C19.8034 16.0304 19.2737 16.2811 19.0722 16.4884C19.0471 16.5139 19.0246 16.5418 19.0048 16.5718C18.279 17.6804 17.3311 18.7406 17.0536 18.7977C16.733 18.7467 15.2323 17.8784 13.7407 16.614C12.2178 15.3223 11.2597 14.0854 11.1191 13.2428C12.0961 12.2193 12.4479 11.5754 12.4479 10.8425C12.4479 10.0872 10.7171 6.93379 10.404 6.6151C10.0899 6.29586 9.38234 6.24595 8.30084 6.46536C8.19666 6.48683 8.10093 6.53889 8.02548 6.6151C7.89454 6.74839 4.83055 9.92815 6.28656 13.782C7.88484 18.0117 11.9872 22.928 17.2174 23.7267C17.8118 23.8172 18.369 23.8622 18.8906 23.8622C21.9675 23.8622 23.7835 22.2863 24.2949 19.1603C24.3135 19.0486 24.2975 18.9339 24.2493 18.8319C24.201 18.7299 24.1228 18.6457 24.0254 18.5909ZM17.3775 22.6417C11.8466 21.7975 8.36281 16.2197 7.29262 13.3882C6.23106 10.5798 8.18876 8.07581 8.6802 7.50973C9.08004 7.44062 9.50089 7.41155 9.67656 7.43952C10.0435 7.95897 11.3142 10.4026 11.3702 10.8425C11.3702 11.1305 11.2781 11.5315 10.1809 12.6488C10.1308 12.6997 10.091 12.7601 10.0639 12.8267C10.0368 12.8932 10.023 12.9646 10.0231 13.0366C10.0231 15.9086 15.9743 19.8931 17.0283 19.8931C17.9449 19.8931 19.1401 18.3249 19.8207 17.303C19.8909 17.3099 19.959 17.3316 20.0206 17.3666C20.2146 17.4659 20.5509 17.6891 20.976 17.9722C21.5375 18.3457 22.2833 18.8416 23.1638 19.3555C22.764 21.3137 21.6464 23.2944 17.3775 22.6417Z" fill="url(#paint2_linear_1965_461)"/>
<defs>
<linearGradient id="paint0_linear_1965_461" x1="0.635681" y1="14.1369" x2="39.4627" y2="14.2216" gradientUnits="userSpaceOnUse">
<stop stop-color="#105BFB"/>
<stop offset="1" stop-color="#5061FF"/>
</linearGradient>
<linearGradient id="paint1_linear_1965_461" x1="0.635681" y1="14.1369" x2="39.4627" y2="14.2216" gradientUnits="userSpaceOnUse">
<stop stop-color="#105BFB"/>
<stop offset="1" stop-color="#5061FF"/>
</linearGradient>
<linearGradient id="paint2_linear_1965_461" x1="5.89502" y1="14.2491" x2="30.6031" y2="14.3057" gradientUnits="userSpaceOnUse">
<stop stop-color="#105BFB"/>
<stop offset="1" stop-color="#5061FF"/>
</linearGradient>
</defs>
</svg>
